<?xml version="1.0" encoding="UTF-8"?><svg id="a" xmlns="http://www.w3.org/2000/svg" xmlns:xlink="http://www.w3.org/1999/xlink" viewBox="0 0 2134 1262"><defs><pattern id="c" x="0" y="0" width="327.27" height="551.04" patternTransform="translate(970 762)" patternUnits="userSpaceOnUse" viewBox="0 0 327.27 551.04"><rect x="0" y="0" width="327.27" height="551.04" style="fill:none; stroke-width:0px;"/><path d="m289.31,471.16c-.76-1.78-1.82-3.39-3.17-4.78-1.42-1.46-3.13-2.65-4.8-3.81-.84-.58-1.71-1.19-2.54-1.82-3.17-2.44-4.97-4.93-5.49-7.61l.77-.15c.48,2.49,2.18,4.83,5.2,7.14.81.62,1.67,1.22,2.51,1.8,1.69,1.18,3.44,2.39,4.91,3.91,1.34,1.39,2.42,2.98,3.21,4.74h.06s.08.35.08.35l-.74.24Z" style="fill:#01947f; stroke:#301215; stroke-linecap:round; stroke-linejoin:round; stroke-width:.75px;"/><path d="m282.57,462.47s-4.06-9.42,1.2-17.27c0,0,1.16,9.32-1.2,17.27Z" style="fill:#01947f; stroke:#301215; stroke-linecap:round; stroke-linejoin:round; stroke-width:.75px;"/><path d="m276.72,467.93s4.66-2.95,9.24-1.88c0,0-4.47,2.38-9.24,1.88Z" style="fill:#01947f; stroke:#301215; stroke-linecap:round; stroke-linejoin:round; stroke-width:.75px;"/><path d="m181.77,511.49c.28-1.92.21-3.85-.22-5.73-.45-1.98-1.29-3.9-2.11-5.75-.41-.94-.84-1.91-1.22-2.88-1.44-3.73-1.68-6.8-.72-9.36l.73.27c-.88,2.38-.65,5.26.72,8.8.37.96.79,1.92,1.2,2.84.83,1.89,1.69,3.83,2.16,5.89.43,1.88.52,3.81.27,5.72l.06.02-.12.35-.76-.18Z" style="fill:#01947f; stroke:#301215; stroke-linecap:round; stroke-linejoin:round; stroke-width:.75px;"/><path d="m180.54,500.57s1.44-10.16,10.02-14.12c0,0-3.86,8.56-10.02,14.12Z" style="fill:#01947f; stroke:#301215; stroke-linecap:round; stroke-linejoin:round; stroke-width:.75px;"/><path d="m172.7,502.19s5.52-.09,8.87,3.2c0,0-5.05-.29-8.87-3.2Z" style="fill:#01947f; stroke:#301215; stroke-linecap:round; stroke-linejoin:round; stroke-width:.75px;"/><path d="m316.43,466c-1.76.81-3.34,1.92-4.68,3.31-1.42,1.46-2.56,3.21-3.67,4.91-.56.86-1.14,1.75-1.75,2.59-2.34,3.24-4.78,5.11-7.45,5.71l-.17-.76c2.47-.56,4.76-2.33,6.99-5.41.6-.83,1.17-1.71,1.73-2.56,1.13-1.73,2.29-3.51,3.76-5.02,1.35-1.38,2.91-2.51,4.65-3.35l-.02-.06.36-.09.26.74Z" style="fill:#01947f; stroke:#301215; stroke-linecap:round; stroke-linejoin:round; stroke-width:.75px;"/><path d="m307.07,475.43s7.51-6.99,16.67-4.67c0,0-8.39,4.22-16.67,4.67Z" style="fill:#01947f; stroke:#301215; stroke-linecap:round; stroke-linejoin:round; stroke-width:.75px;"/><path d="m309.42,471.79s-1.74-5.23.4-9.42c0,0,1.23,4.91-.4,9.42Z" style="fill:#01947f; stroke:#301215; stroke-linecap:round; stroke-linejoin:round; stroke-width:.75px;"/><path d="m208.34,529.53c-1.09-.08-2.17-.17-3.26-.27-6.16-.61-12.27-1.71-18.25-3.28-2.84-.75-5.65-1.6-8.42-2.56-2.4-.83-5.17-2.61-7.73-2.39-.63.05-1.34.18-1.84-.22-.17-.13-.3-.32-.43-.49-1.22-1.62-2.84-2.22-4.57-3.11-.46-.24-5.6-3.03-5.56-3.1,0,0,6.86-11.41,6.86-11.41-.05.09,5.61,3.1,6.13,3.36,2.08,1.05,4.28,1.67,6.62,1.83.23.02.47.03.69.12.39.16.63.53.9.85,1.59,1.91,4.84,2.55,7.12,3.23,2.78.83,5.59,1.53,8.43,2.12,5.69,1.18,11.49,1.87,17.3,2.08,11.46.41,23.04-1.07,33.94-4.72,1.34-.45,2.66-.93,3.97-1.44,9.48-3.7,18.41-9.01,25.63-16.25,5.14-5.15,9.34-11.21,12.25-17.88.62-1.43.51-2.87.03-4.35-.06-.19-.12-.4-.02-.57.06-.09.15-.15.24-.2,3.25-2.05,3.62-6.95,3.82-10.45l13.29.78c.19,0-.87,6.83-.99,7.42-.52,2.53-1.61,5.1-1.82,7.67-.04.52-.04,1.07-.25,1.55-.12.26-.3.49-.47.72-1.49,2.02-2.27,4.48-3.43,6.7-4.06,7.82-9.61,14.84-16.15,20.73-7.96,7.17-17.33,12.65-27.3,16.54-15.93,6.22-31.91,8.04-46.74,7.01Z" style="fill:#01947f; stroke:#301215; stroke-linecap:round; stroke-linejoin:round; stroke-width:.75px;"/><path d="m253.06,523.39c-.52.18-1.04.35-1.56.53-8.14,2.68-16.68,3.85-25.15,3.43-2.72-.13-5.11-1.79-7.73-2.52-3.25-.91-6.57-1.58-9.94-1.68-13.45-.41-24.4,10.44-24.8,25.25-.46,16.6,12.33,28.39,26.07,32.15,19.71,5.39,46.59,1.83,59.81-17.09,2.3-3.29,4.09-6.97,5.3-10.87,2.53-8.15,2.57-18.95-3.52-25.22-4.83-4.97-12.19-6.09-18.47-3.97Z" style="fill:#fff; stroke-width:0px;"/><path d="m271.53,527.36c-4.83-4.97-12.19-6.09-18.47-3.97-.52.18-1.04.35-1.56.53-6.13,2.02-12.5,3.18-18.89,3.45-.84,1.27-1.3,2.74-1.11,4.42.19,1.73,1.26,3.16,2.17,4.58,3.02,4.75,3.94,9.81,4.5,15.42.65,6.5.17,13.08.49,19.61.13,2.74.42,5.51,1.29,8.08.23.67.5,1.33.82,1.96,11.41-2.41,22.07-8.09,28.99-17.99,2.3-3.29,4.09-6.97,5.3-10.87,2.54-8.15,2.57-18.95-3.52-25.22Z" style="fill:#42454a; stroke-width:0px;"/><path d="m253.06,523.39c-.52.18-1.04.35-1.56.53-8.14,2.68-16.68,3.85-25.15,3.43-2.72-.13-5.11-1.79-7.73-2.52-3.25-.91-6.57-1.58-9.94-1.68-13.45-.41-24.4,10.44-24.8,25.25-.46,16.6,12.33,28.39,26.07,32.15,19.71,5.39,46.59,1.83,59.81-17.09,2.3-3.29,4.09-6.97,5.3-10.87,2.53-8.15,2.57-18.95-3.52-25.22-4.83-4.97-12.19-6.09-18.47-3.97Z" style="fill:none; stroke:#301215; stroke-linecap:round; stroke-linejoin:round; stroke-width:.75px;"/><path d="m323.93,511.9c-3.3,6.05-10.87,8.28-16.92,4.99-6.05-3.3-8.28-10.87-4.99-16.92s10.87-8.28,16.92-4.99c6.05,3.3,8.28,10.87,4.99,16.92Z" style="fill:#42454a; stroke-width:0px;"/><path d="m323.93,511.9c-3.3,6.05-10.87,8.28-16.92,4.99-6.05-3.3-8.28-10.87-4.99-16.92s10.87-8.28,16.92-4.99c6.05,3.3,8.28,10.87,4.99,16.92Z" style="fill:none; stroke:#301215; stroke-linecap:round; stroke-linejoin:round; stroke-width:.75px;"/><path d="m270.59,482.84c-3.3,6.05-10.87,8.28-16.92,4.99-6.05-3.3-8.28-10.87-4.99-16.92,3.3-6.05,10.87-8.28,16.92-4.99,6.05,3.3,8.28,10.87,4.99,16.92Z" style="fill:#42454a; stroke-width:0px;"/><path d="m270.59,482.84c-3.3,6.05-10.87,8.28-16.92,4.99-6.05-3.3-8.28-10.87-4.99-16.92,3.3-6.05,10.87-8.28,16.92-4.99,6.05,3.3,8.28,10.87,4.99,16.92Z" style="fill:none; stroke:#301215; stroke-linecap:round; stroke-linejoin:round; stroke-width:.75px;"/><path d="m266.7,482.85c-1.99,3.65-6.55,4.99-10.2,3-3.65-1.99-4.99-6.55-3-10.2,1.99-3.65,6.55-4.99,10.2-3,3.65,1.99,4.99,6.55,3.01,10.2Z" style="fill:#e48089; stroke:#301215; stroke-linecap:round; stroke-linejoin:round; stroke-width:.75px;"/><path d="m316.47,509.81c-1.99,3.65-6.55,4.99-10.2,3.01-3.65-1.99-4.99-6.55-3-10.2,1.99-3.65,6.55-4.99,10.2-3.01,3.65,1.99,4.99,6.55,3.01,10.2Z" style="fill:#e48089; stroke:#301215; stroke-linecap:round; stroke-linejoin:round; stroke-width:.75px;"/><path d="m306.75,535.2c-8.49,15.59-28.54,15.77-47.52,5.43-18.98-10.34-29.7-27.28-21.21-42.87,8.49-15.59,32.99-23.94,51.97-13.6,18.98,10.34,25.25,35.45,16.76,51.04Z" style="fill:#fff; stroke-width:0px;"/><path d="m306.75,535.2c-8.49,15.59-28.54,15.77-47.52,5.43-18.98-10.34-29.7-27.28-21.21-42.87,8.49-15.59,32.99-23.94,51.97-13.6,18.98,10.34,25.25,35.45,16.76,51.04Z" style="fill:none; stroke:#301215; stroke-linecap:round; stroke-linejoin:round; stroke-width:.75px;"/><path d="m293.8,508.57c-3.45-.92-8.75.28-11.84,8.01-5.34,13.39,6.22,29.62,12.85,22.89,3.07-3.11-2.48-6.45,3.28-17.28,4.15-7.79-1.28-12.82-4.29-13.62Z" style="fill:#42454a; stroke-width:0px;"/><path d="m266.22,493.55c2.64,2.4,4.51,7.51-.31,14.29-8.35,11.75-28.26,10.84-26.2,1.62.95-4.27,6.77-1.41,12.74-12.13,4.3-7.71,11.47-5.88,13.77-3.78Z" style="fill:#42454a; stroke-width:0px;"/><path d="m293.3,522.39c-1.3,2.4-3.93,3.49-5.85,2.44-1.93-1.05-2.43-3.84-1.13-6.24,1.3-2.4,3.93-3.49,5.85-2.44,1.93,1.05,2.43,3.84,1.13,6.24Z" style="fill:#301215; stroke-width:0px;"/><path d="m254.88,501.46c-1.3,2.4-.8,5.19,1.13,6.24,1.93,1.05,4.55-.04,5.85-2.44,1.3-2.4.8-5.19-1.13-6.24-1.93-1.05-4.55.04-5.85,2.44Z" style="fill:#301215; stroke-width:0px;"/><path d="m262.5,520.49c-.11.21-1.03,2.1.8,3.1,3.12,1.7,4.95-2.15,5.37-2.93l.97.53c-.43.78-2.75,4.37.45,6.11,1.84,1,2.92-.8,3.04-1.01,0,0-.66,3.56-3.57,1.98-1.78-.97-2.46-2.26-2.49-3.52-1.07.65-2.53.79-4.31-.18-2.72-1.48-.27-4.07-.27-4.07Z" style="fill:#42454a; stroke-width:0px;"/><path d="m270.2,528.63c-.9,1.65-3.42,2.01-5.64.8-2.21-1.21-3.28-3.52-2.38-5.17.01-.02.02-.03.03-.05.15.13.34.25.55.37,1.78.97,3.24.84,4.3.18.04,1.26.72,2.55,2.5,3.52.23.13.45.22.67.29,0,.02-.01.04-.03.06Z" style="fill:#e48089; stroke-width:0px;"/><path d="m275.07,516.16l-2.66-1.15-2.41-1.61s-4.01-2.84-5.09-.86c-1.08,1.98,1.74,8.67,3.45,9.89,1.96.77,9.11-.48,10.19-2.47,1.08-1.98-3.48-3.81-3.48-3.81Z" style="fill:#301215; stroke-width:0px;"/><path d="m259.72,502.49c-.07,1.07.44,1.98,1.15,2.03s1.34-.78,1.42-1.85c.07-1.07-.44-1.98-1.15-2.03s-1.34.78-1.42,1.85Z" style="fill:#fff; stroke-width:0px;"/><path d="m291.03,519.37c-.07,1.07.44,1.98,1.15,2.03.71.05,1.34-.78,1.42-1.85.07-1.07-.44-1.98-1.15-2.03-.71-.05-1.34.78-1.42,1.85Z" style="fill:#fff; stroke-width:0px;"/><path d="m299.45,535.18c-1.03,1.67-3.65,1.91-5.86.55-2.21-1.36-3.17-3.81-2.14-5.48s3.65-1.91,5.86-.55c2.21,1.36,3.17,3.82,2.14,5.48Z" style="fill:#e48089; stroke-width:0px;"/><path d="m250.28,507.6c-1.03,1.67-3.65,1.91-5.86.55-2.21-1.36-3.17-3.81-2.14-5.48,1.03-1.67,3.65-1.91,5.86-.55,2.21,1.36,3.17,3.82,2.14,5.48Z" style="fill:#e48089; stroke-width:0px;"/><path d="m234.82,555.14c-3.74-3.02-6.53-7.04-9.11-11.1-6.42-10.08-12.06-21.36-11.71-33.31.07-2.21.37-4.5,1.59-6.34,2.09-3.16,6.54-4.15,10.15-3.02,3.61,1.14,6.45,4,8.5,7.19,2.05,3.19,3.44,6.74,5.17,10.11,2.11,4.12,4.74,8.02,8.14,11.15,4.79,4.41,11.26,7.58,13.67,13.63,1.85,4.64.5,10.3-3.03,13.78-4.03,3.97-9.28,3.94-14.44,2.49-3.24-.91-6.31-2.46-8.93-4.57Z" style="fill:#42454a; stroke-width:0px;"/><path d="m243.75,559.72c-3.24-.91-6.31-2.46-8.93-4.57-3.74-3.02-6.53-7.04-9.11-11.1-6.42-10.08-12.06-21.36-11.71-33.31.07-2.21.37-4.5,1.59-6.34,2.09-3.16,6.54-4.15,10.15-3.02,3.61,1.14,6.45,4,8.5,7.19,2.05,3.19,3.44,6.74,5.17,10.11,2.11,4.12,4.74,8.02,8.14,11.15,4.79,4.41,11.26,7.58,13.67,13.63" style="fill:none; stroke:#301215; stroke-linecap:round; stroke-linejoin:round; stroke-width:.75px;"/><path d="m208.78,567.18c3.95-1.1,7.01-4.55,8.22-8.47,1.21-3.92.73-8.23-.74-12.07-1.47-3.83-3.86-7.25-6.49-10.4-1.21-1.46-2.5-2.9-3.26-4.64-1.5-3.44-.7-7.44.57-10.97,1.27-3.53,3.01-6.97,3.35-10.71.35-3.74-1.15-8-4.6-9.45-2.63-1.11-5.77-.29-8.07,1.41-2.29,1.7-3.89,4.17-5.29,6.66-1.47,2.6-2.8,5.28-4.09,7.98-2.63,5.5-5.13,11.14-6.33,17.12-1.05,5.27-1.07,10.75-.04,16.03.69,3.54,1.87,7.03,3.96,9.97,1.79,2.51,4.36,5.19,7.19,6.51,4.8,2.23,10.55,2.45,15.62,1.03Z" style="fill:#42454a; stroke-width:0px;"/><path d="m217,558.7c1.21-3.92.73-8.23-.74-12.07-1.47-3.83-3.86-7.25-6.49-10.4-1.21-1.46-2.5-2.9-3.26-4.64-1.5-3.44-.7-7.44.57-10.97,1.27-3.53,3.01-6.97,3.35-10.71.35-3.74-1.15-8-4.6-9.45-2.63-1.11-5.77-.29-8.07,1.41-2.29,1.7-3.89,4.17-5.29,6.66-1.47,2.6-2.8,5.28-4.09,7.98-2.63,5.5-5.13,11.14-6.33,17.12-1.05,5.27-1.07,10.75-.04,16.03.69,3.54,1.87,7.03,3.96,9.97,1.79,2.51,4.36,5.19,7.19,6.51" style="fill:none; stroke:#301215; stroke-linecap:round; stroke-linejoin:round; stroke-width:.75px;"/><path d="m317.82,548.58l-.26,4.39c-.01.21-.11.41-.27.55l-3.26,2.95c-.45.4-.31,1.14.25,1.36l4.09,1.6c.2.08.36.23.44.42l1.8,4.01c.25.55.98.65,1.37.18l2.79-3.4c.13-.16.33-.27.54-.29l4.37-.47c.6-.06.92-.74.6-1.24l-2.37-3.7c-.11-.18-.15-.4-.11-.6l.9-4.3c.12-.59-.42-1.1-1-.95l-4.25,1.11c-.21.05-.42.02-.61-.08l-3.81-2.19c-.52-.3-1.18.05-1.21.66Z" style="fill:#f49292; stroke-width:0px;"/><path d="m87.36,458.4c-1.62,6.7.44,13.81,3.75,19.86,3.31,6.05,7.83,11.33,11.67,17.06,3.84,5.72,7.08,12.17,7.31,19.06.16,4.88-1.19,9.66-1.85,14.5-1.09,7.96.11,16.93,6.04,22.34" style="fill:none; stroke:#301215; stroke-linecap:round; stroke-linejoin:round; stroke-width:.75px;"/><path d="m90.84,458.98c.3.36.62.75.73,1.22.21.92-.45,1.6-1.07,2-1.89,1.22-4.04,1.93-6.3,2.06-.31.02-.63.02-.93-.14-.76-.41-1.02-1.59-1.13-2.56-.16-1.31-.29-2.63-.16-3.89.13-1.26.55-2.45,1.34-3.15,2.83-2.49,5.45,1.99,7.53,4.45Z" style="fill:#8eadce; stroke-width:0px;"/><path d="m90.84,458.98c.3.36.62.75.73,1.22.21.92-.45,1.6-1.07,2-1.89,1.22-4.04,1.93-6.3,2.06-.31.02-.63.02-.93-.14-.76-.41-1.02-1.59-1.13-2.56-.16-1.31-.29-2.63-.16-3.89.13-1.26.55-2.45,1.34-3.15,2.83-2.49,5.45,1.99,7.53,4.45Z" style="fill:none; stroke:#301215; stroke-linecap:round; stroke-linejoin:round; stroke-width:.75px;"/><path d="m51.87,448.01c1.76,1.88,3.74,3.51,5.87,4.89,7.24,4.69,16.27,6.47,24.68,5.13.98-.03,1.96-.27,2.91-.62.96-.3,1.9-.7,2.69-1.27,9.7-5.25,17.03-15.27,18.15-26.55.02-.19.04-.39.05-.58.1-1.26.13-2.59.08-3.94-.31-10.41-4.91-22.82-15.67-25.34-6.59-1.54-13.55,1.78-17.71,7.12-1.21,1.56-2.2,3.26-3.03,5.05-1.74-.93-3.56-1.68-5.47-2.17-6.55-1.72-14.1-.12-18.39,5.11-3.19,3.89-4.26,9.32-3.7,14.45.83,7.39,4.54,13.38,9.53,18.71Z" style="fill:#8eadce; stroke-width:0px;"/><path d="m57.75,452.9c7.24,4.69,16.27,6.47,24.68,5.13.98-.03,1.96-.27,2.91-.62.96-.3,1.9-.7,2.69-1.27,9.7-5.25,17.03-15.27,18.15-26.55.02-.19.04-.39.05-.58.1-1.26.13-2.59.08-3.94-3.34,7.31-8.18,14.01-14.41,19.09-6.24,5.09-13.91,8.52-21.92,9.28-4.09.38-8.17.09-12.24-.53Z" style="fill:#779bbc; stroke-width:0px;"/><path d="m42.34,429.3c-.57-5.12.51-10.55,3.7-14.44,4.29-5.23,11.83-6.83,18.39-5.12,1.91.5,3.73,1.24,5.48,2.17.82-1.8,1.81-3.5,3.02-5.06,4.16-5.34,11.12-8.66,17.71-7.12,12.17,2.85,16.46,18.33,15.59,29.27-.02.2-.03.39-.05.59-1.12,11.28-8.45,21.29-18.15,26.54-.79.57-1.72.98-2.69,1.27-.95.36-1.93.6-2.91.62-10.89,1.73-22.8-1.75-30.55-10.02-4.99-5.32-8.71-11.32-9.53-18.71Z" style="fill:none; stroke:#301215; stroke-linecap:round; stroke-linejoin:round; stroke-width:.75px;"/><path d="m120.03,481.31c-4.16,5.11-4.78,10.13-3.99,16.27.86,6.71.02,13.63-2.47,19.92-1.47,3.71-3.5,7.22-4.61,11.05-1.06,3.67-1.22,7.59-.52,11.34.7,3.77,2.55,5.8,1.2,9.3-2.97,7.71-8.24,13.67-4.65,22.54" style="fill:none; stroke:#301215; stroke-linecap:round; stroke-linejoin:round; stroke-width:.75px;"/><path d="m122.77,483.23c.11.43.22.89.12,1.34-.2.87-1.04,1.18-1.74,1.27-2.12.27-4.25-.01-6.23-.82-.27-.11-.55-.24-.74-.5-.48-.66-.22-1.78.08-2.66.4-1.18.83-2.37,1.46-3.39.63-1.02,1.48-1.87,2.44-2.14,3.45-.97,3.84,3.94,4.61,6.9Z" style="fill:#f49292; stroke-width:0px;"/><path d="m122.77,483.23c.11.43.22.89.12,1.34-.2.87-1.04,1.18-1.74,1.27-2.12.27-4.25-.01-6.23-.82-.27-.11-.55-.24-.74-.5-.48-.66-.22-1.78.08-2.66.4-1.18.83-2.37,1.46-3.39.63-1.02,1.48-1.87,2.44-2.14,3.45-.97,3.84,3.94,4.61,6.9Z" style="fill:none; stroke:#301215; stroke-linecap:round; stroke-linejoin:round; stroke-width:.75px;"/><path d="m93.94,457.86c.74,2.33,1.76,4.53,3.02,6.59,4.27,6.98,11.26,12.21,19,14.51.85.38,1.79.57,2.74.66.95.14,1.91.18,2.82.01,10.45-.51,20.83-6.07,26.41-15.25.09-.15.19-.32.29-.48.6-1.04,1.17-2.16,1.69-3.34,4.01-9.03,5.16-21.53-3.01-28.1-5-4.02-12.32-4.04-18.07-1.18-1.67.83-3.22,1.88-4.66,3.08-1.11-1.5-2.36-2.9-3.79-4.1-4.9-4.15-12.01-5.88-17.82-3.17-4.32,2.02-7.47,6.22-9.09,10.84-2.32,6.66-1.61,13.31.48,19.91Z" style="fill:#f49292; stroke-width:0px;"/><path d="m96.96,464.46c4.27,6.98,11.26,12.21,19,14.51.85.38,1.79.57,2.74.66.95.14,1.91.18,2.82.01,10.45-.51,20.83-6.07,26.41-15.25.09-.15.19-.32.29-.48.6-1.04,1.17-2.16,1.69-3.34-5.86,4.88-12.74,8.62-20.15,10.41-7.43,1.79-15.39,1.58-22.55-1.06-3.65-1.35-7.03-3.28-10.25-5.48Z" style="fill:#dd6c6c; stroke-width:0px;"/><path d="m93.47,437.95c1.61-4.62,4.76-8.82,9.09-10.83,5.82-2.71,12.92-.99,17.82,3.17,1.43,1.21,2.68,2.6,3.79,4.11,1.44-1.2,2.99-2.25,4.66-3.08,5.75-2.86,13.06-2.85,18.07,1.18,9.24,7.43,6.55,22.42,1.32,31.43-.09.16-.19.32-.29.48-5.59,9.18-15.96,14.74-26.41,15.25-.91.17-1.87.13-2.82-.01-.96-.09-1.89-.28-2.74-.66-10.03-2.99-18.78-10.86-22.01-21.11-2.08-6.6-2.8-13.26-.47-19.91Z" style="fill:none; stroke:#301215; stroke-linecap:round; stroke-linejoin:round; stroke-width:.75px;"/><path d="m100.12,564.19c.85-1.49,1.56-3.06,2.08-4.7,1.61-5.09,1.33-10.61.31-15.85-.55-2.81-1.31-5.6-1.45-8.46-.15-2.86.39-5.88,2.17-8.12,1.21-1.53,3.1-2.63,5.07-2.77,4.79-.35,7.5,7.01,8.88,10.58,5.71,14.74,5.21,32.07-2.59,45.82-.76,1.35-1.82,2.8-3.37,2.91-.56.04-1.12-.12-1.66-.28-3.32-1.01-6.49-2.45-9.44-4.26-2.65-1.62-5.28-1.7-6.31-5.13-.13-.43-.23-.89-.12-1.33.13-.54.55-.95.94-1.35,2.11-2.11,4.02-4.47,5.5-7.06Z" style="fill:#42454a; stroke-width:0px;"/><path d="m100.12,564.19c.85-1.49,1.56-3.06,2.08-4.7,1.61-5.09,1.33-10.61.31-15.85-.55-2.81-1.31-5.6-1.45-8.46-.15-2.86.39-5.88,2.17-8.12,1.21-1.53,3.1-2.63,5.07-2.77,4.79-.35,7.5,7.01,8.88,10.58,5.71,14.74,5.21,32.07-2.59,45.82-.76,1.35-1.82,2.8-3.37,2.91-.56.04-1.12-.12-1.66-.28-3.32-1.01-6.49-2.45-9.44-4.26-2.65-1.62-5.28-1.7-6.31-5.13-.13-.43-.23-.89-.12-1.33.13-.54.55-.95.94-1.35,2.11-2.11,4.02-4.47,5.5-7.06Z" style="fill:none; stroke:#301215; stroke-linecap:round; stroke-linejoin:round; stroke-width:.75px;"/><path d="m28.54,543.59c-5.58-4.38-5.66-10.19-1.07-16.04,4.59-5.85,9.78-7.21,15.37-2.82,5.58,4.38,9.45,12.84,4.85,18.7-4.59,5.85-13.57,4.55-19.15.17Z" style="fill:#42454a; stroke-width:0px;"/><path d="m28.54,543.59c-5.58-4.38-5.66-10.19-1.07-16.04,4.59-5.85,9.78-7.21,15.37-2.82,5.58,4.38,9.45,12.84,4.85,18.7-4.59,5.85-13.57,4.55-19.15.17Z" style="fill:none; stroke:#301215; stroke-linecap:round; stroke-linejoin:round; stroke-width:.75px;"/><path d="m33.79,539.81c-3.08-2.41-3.12-5.61-.59-8.84s5.39-3.97,8.47-1.56c3.08,2.41,5.21,7.08,2.67,10.3-2.53,3.22-7.47,2.51-10.55.09Z" style="fill:#e48089; stroke:#301215; stroke-linecap:round; stroke-linejoin:round; stroke-width:.75px;"/><path d="m91.07,514.92c.8-7.05-3.28-11.18-10.67-12.02-7.39-.84-12,1.91-12.8,8.96-.8,7.05,2.52,15.74,9.91,16.58,7.39.84,12.76-6.47,13.56-13.52Z" style="fill:#42454a; stroke-width:0px;"/><path d="m91.07,514.92c.8-7.05-3.28-11.18-10.67-12.02-7.39-.84-12,1.91-12.8,8.96-.8,7.05,2.52,15.74,9.91,16.58,7.39.84,12.76-6.47,13.56-13.52Z" style="fill:none; stroke:#301215; stroke-linecap:round; stroke-linejoin:round; stroke-width:.75px;"/><path d="m85.27,515.18c.44-3.89-1.81-6.16-5.88-6.62-4.07-.46-6.61,1.05-7.05,4.94-.44,3.89,1.39,8.67,5.46,9.13,4.07.46,7.03-3.56,7.47-7.45Z" style="fill:#e48089; stroke:#301215; stroke-linecap:round; stroke-linejoin:round; stroke-width:.75px;"/><path d="m100.14,532.9c.86,1.04,5.33,3.09,7.41,7.79,9.18,20.79-28.57,44.52-50.28,39.39-7.11-1.68-12.15-6.89-15.08-13.48-3.69-8.29-14.49-34.63,17.52-48.02,24.56-10.28,34.68,7.38,40.44,14.32Z" style="fill:#fff; stroke-width:0px;"/><path d="m100.14,532.9c.86,1.04,5.33,3.09,7.41,7.79,9.18,20.79-28.57,44.52-50.28,39.39-7.11-1.68-12.15-6.89-15.08-13.48-3.69-8.29-14.49-34.63,17.52-48.02,24.56-10.28,34.68,7.38,40.44,14.32Z" style="fill:none; stroke:#301215; stroke-linecap:round; stroke-linejoin:round; stroke-width:.75px;"/><path d="m61.41,540.07s-8.26.89-11.18,9.89c-2.92,9.01-.73,18.35,6.52,18.08,7.19-.27,12.26-5.94,11.31-10.22-1.88-8.47,2.99-17.45-6.65-17.75Z" style="fill:#42454a; stroke-width:0px;"/><path d="m80.72,531.99s5.26-4.77,12.83-.15c7.56,4.62,12.45,12.84,8.16,17.39-4.25,4.52-10.84,3.73-13.12,0-4.49-7.38-13.14-10.7-7.87-17.24Z" style="fill:#42454a; stroke-width:0px;"/><path d="m82.72,545.6s-1.59-.82-5.55.86c-4.01,1.7-4.55,3.37-4.48,3.55.08.18,3.86,3.64,6.92,2.36,3.07-1.28,3.53-4.46,3.1-6.77Z" style="fill:#301215; stroke-width:0px;"/><path d="m72.78,556.12c.12.28,1.27,2.72,3.74,1.68,3.54-1.48,2.89-4.1,2.45-5.15l1.31-.55c.44,1.06,1.85,3.35,5.39,1.87,2.47-1.03,1.54-3.56,1.43-3.84,0,0,3.03,3.52-.88,5.15-2.39,1-4.23.64-5.51-.33-.21,1.6-1.24,3.16-3.63,4.16-3.67,1.53-4.29-2.99-4.29-2.99Z" style="fill:#301215; stroke-width:0px;"/><path d="m104.79,543.46c.65,1.54-.96,3.69-3.59,4.79-2.63,1.1-5.29.74-5.93-.8-.65-1.54.96-3.69,3.59-4.79,2.63-1.1,5.29-.74,5.93.8Z" style="fill:#e48089; stroke-width:0px;"/><path d="m66.6,549.85c.1.11.19.25.19.4-.02.35-.5.43-.86.42-1.92-.09-3.85.31-5.58,1.15-1,.48-1.92,1.11-2.83,1.73-.31-.66,0-1.44.41-2.05.92-1.39,2.6-2.84,4.29-3.16,1.4-.27,3.47.47,4.38,1.52Z" style="fill:#301215; stroke-width:0px;"/><path d="m84.94,542.18c.01.15.04.31.15.41.26.24.66-.05.9-.32,1.28-1.42,2.93-2.52,4.73-3.16,1.04-.37,2.13-.59,3.22-.8-.25-.68-1.03-1.01-1.75-1.15-1.64-.32-3.84-.14-5.26.84-1.17.81-2.1,2.8-1.99,4.19Z" style="fill:#301215; stroke-width:0px;"/><path d="m-9.45,548.58l-.26,4.39c-.01.21-.11.41-.27.55l-3.26,2.95c-.45.4-.31,1.14.25,1.36l4.09,1.6c.2.08.36.23.44.42l1.8,4.01c.25.55.98.65,1.37.18l2.79-3.4c.13-.16.33-.27.54-.29l4.37-.47c.6-.06.92-.74.6-1.24l-2.37-3.7c-.11-.18-.15-.4-.11-.6l.9-4.3c.12-.59-.42-1.1-1-.95l-4.25,1.11c-.21.05-.42.02-.61-.08l-3.81-2.19c-.52-.3-1.18.05-1.21.66Z" style="fill:#f49292; stroke-width:0px;"/><path d="m24.23,464.79c-.99-1.01-3.49-.62-4.83.83-.68.74-1.1,1.76-.93,2.75.17.99,1.01,1.87,2.01,1.91.51.02,1-.17,1.44-.41.95-.52,1.73-1.33,2.23-2.29.69-1.34.59-2.25.07-2.78Z" style="fill:#fff; stroke-width:0px;"/><path d="m30.51,467.13c-.18.91,0,2.04.84,2.43.6.27,1.3.06,1.88-.24,1-.53,1.85-1.33,2.44-2.29.5-.82.79-1.91.26-2.71-1.8-2.7-5.04.96-5.42,2.82Z" style="fill:#fff; stroke-width:0px;"/><path d="m18.49,477.72c-.68.68-1.17,1.59-1.15,2.55,0,.32.08.65.28.91.38.48,1.11.52,1.7.34,1.17-.35,2.03-1.35,2.67-2.39.35-.57.67-1.24.55-1.9-.44-2.28-3.25-.3-4.04.49Z" style="fill:#fff; stroke-width:0px;"/><path d="m33.73,480.14c-.39-2.7-4.6,1.11-4.89,2.35-.07.29-.1.59,0,.87.16.44.64.71,1.11.73.47.02.92-.17,1.33-.4,1.06-.62,1.9-1.62,2.33-2.77.09-.25.17-.51.13-.77Z" style="fill:#fff; stroke-width:0px;"/><path d="m371.98,254.01c-1.09-.08-2.17-.17-3.26-.27-6.16-.61-12.27-1.71-18.25-3.28-2.84-.75-5.65-1.6-8.42-2.56-2.4-.83-5.17-2.61-7.73-2.39-.63.05-1.34.17-1.84-.22-.17-.13-.3-.32-.43-.49-1.22-1.62-2.84-2.22-4.57-3.11-.46-.24-5.6-3.03-5.56-3.1,0,0,6.86-11.41,6.86-11.41-.05.09,5.61,3.1,6.13,3.36,2.08,1.05,4.28,1.67,6.62,1.83.23.02.47.03.69.12.39.16.63.53.9.85,1.59,1.91,4.84,2.55,7.12,3.23,2.78.83,5.59,1.53,8.43,2.12,5.69,1.18,11.49,1.87,17.3,2.08,11.46.41,23.04-1.07,33.94-4.72,1.34-.45,2.66-.93,3.97-1.44,9.48-3.7,18.41-9.01,25.63-16.25,5.14-5.15,9.34-11.21,12.25-17.88.62-1.43.51-2.87.03-4.35-.06-.19-.12-.4-.02-.57.06-.09.15-.15.24-.2,3.25-2.05,3.62-6.95,3.82-10.45l13.29.78c.19,0-.87,6.83-.99,7.42-.52,2.53-1.61,5.1-1.82,7.67-.04.52-.04,1.07-.25,1.55-.12.26-.3.49-.47.72-1.49,2.02-2.27,4.48-3.43,6.7-4.06,7.82-9.61,14.84-16.15,20.73-7.96,7.17-17.33,12.65-27.3,16.54-15.93,6.22-31.91,8.04-46.74,7.01Z" style="fill:#01947f; stroke:#301215; stroke-linecap:round; stroke-linejoin:round; stroke-width:.75px;"/><path d="m43.15,305.21c-.22,3.19-2.98,5.59-6.17,5.37-3.19-.22-5.59-2.98-5.37-6.17s2.98-5.59,6.17-5.37c3.19.22,5.59,2.98,5.37,6.17Z" style="fill:#42454a; stroke-width:0px;"/><path d="m125.67,195.64c-.76-1.78-1.82-3.39-3.17-4.78-1.42-1.46-3.13-2.65-4.8-3.81-.84-.58-1.71-1.19-2.54-1.82-3.17-2.44-4.97-4.93-5.49-7.61l.77-.15c.48,2.49,2.18,4.83,5.2,7.14.81.62,1.67,1.22,2.51,1.8,1.69,1.18,3.44,2.39,4.91,3.91,1.34,1.39,2.42,2.98,3.21,4.74h.06s.08.35.08.35l-.74.24Z" style="fill:#01947f; stroke:#301215; stroke-linecap:round; stroke-linejoin:round; stroke-width:.75px;"/><path d="m118.94,186.95s-4.06-9.42,1.2-17.27c0,0,1.16,9.32-1.2,17.27Z" style="fill:#01947f; stroke:#301215; stroke-linecap:round; stroke-linejoin:round; stroke-width:.75px;"/><path d="m113.08,192.41s4.66-2.95,9.24-1.88c0,0-4.47,2.38-9.24,1.88Z" style="fill:#01947f; stroke:#301215; stroke-linecap:round; stroke-linejoin:round; stroke-width:.75px;"/><path d="m18.13,235.97c.28-1.92.21-3.84-.22-5.73-.45-1.98-1.29-3.9-2.11-5.75-.41-.94-.84-1.91-1.22-2.88-1.44-3.73-1.68-6.8-.72-9.36l.73.27c-.88,2.38-.65,5.26.72,8.8.37.96.79,1.92,1.2,2.84.83,1.89,1.69,3.83,2.16,5.89.43,1.88.52,3.81.27,5.72l.06.02-.12.35-.76-.18Z" style="fill:#01947f; stroke:#301215; stroke-linecap:round; stroke-linejoin:round; stroke-width:.75px;"/><path d="m16.9,225.05s1.44-10.16,10.02-14.12c0,0-3.86,8.56-10.02,14.12Z" style="fill:#01947f; stroke:#301215; stroke-linecap:round; stroke-linejoin:round; stroke-width:.75px;"/><path d="m9.06,226.66s5.52-.09,8.87,3.2c0,0-5.05-.29-8.87-3.2Z" style="fill:#01947f; stroke:#301215; stroke-linecap:round; stroke-linejoin:round; stroke-width:.75px;"/><path d="m152.8,190.47c-1.76.81-3.34,1.92-4.68,3.31-1.42,1.46-2.56,3.21-3.67,4.91-.56.86-1.14,1.75-1.75,2.59-2.34,3.24-4.78,5.11-7.45,5.71l-.17-.76c2.47-.56,4.76-2.33,6.99-5.41.6-.83,1.17-1.71,1.73-2.56,1.13-1.73,2.29-3.51,3.76-5.02,1.35-1.38,2.91-2.51,4.65-3.35l-.02-.06.36-.09.26.74Z" style="fill:#01947f; stroke:#301215; stroke-linecap:round; stroke-linejoin:round; stroke-width:.75px;"/><path d="m143.43,199.91s7.51-6.99,16.67-4.67c0,0-8.39,4.22-16.67,4.67Z" style="fill:#01947f; stroke:#301215; stroke-linecap:round; stroke-linejoin:round; stroke-width:.75px;"/><path d="m145.78,196.27s-1.74-5.23.4-9.42c0,0,1.23,4.91-.4,9.42Z" style="fill:#01947f; stroke:#301215; stroke-linecap:round; stroke-linejoin:round; stroke-width:.75px;"/><path d="m44.7,254.01c-1.09-.08-2.17-.17-3.26-.27-6.16-.61-12.27-1.71-18.25-3.28-2.84-.75-5.65-1.6-8.42-2.56-2.4-.83-5.17-2.61-7.73-2.39-.63.05-1.34.17-1.84-.22-.17-.13-.3-.32-.43-.49-1.22-1.62-2.84-2.22-4.57-3.11-.46-.24-5.6-3.03-5.56-3.1,0,0,6.86-11.41,6.86-11.41-.05.09,5.61,3.1,6.13,3.36,2.08,1.05,4.28,1.67,6.62,1.83.23.02.47.03.69.12.39.16.63.53.9.85,1.59,1.91,4.84,2.55,7.12,3.23,2.78.83,5.59,1.53,8.43,2.12,5.69,1.18,11.49,1.87,17.3,2.08,11.46.41,23.04-1.07,33.94-4.72,1.34-.45,2.66-.93,3.97-1.44,9.48-3.7,18.41-9.01,25.63-16.25,5.14-5.15,9.34-11.21,12.25-17.88.62-1.43.51-2.87.03-4.35-.06-.19-.12-.4-.02-.57.06-.09.15-.15.24-.2,3.25-2.05,3.62-6.95,3.82-10.45l13.29.78c.19,0-.87,6.83-.99,7.42-.52,2.53-1.61,5.1-1.82,7.67-.04.52-.04,1.07-.25,1.55-.12.26-.3.49-.47.72-1.49,2.02-2.27,4.48-3.43,6.7-4.06,7.82-9.61,14.84-16.15,20.73-7.96,7.17-17.33,12.65-27.3,16.54-15.93,6.22-31.91,8.04-46.74,7.01Z" style="fill:#01947f; stroke:#301215; stroke-linecap:round; stroke-linejoin:round; stroke-width:.75px;"/><path d="m89.42,247.87c-.52.18-1.04.35-1.56.53-8.14,2.68-16.68,3.85-25.15,3.43-2.72-.13-5.11-1.79-7.73-2.52-3.25-.91-6.57-1.58-9.94-1.68-13.45-.41-24.4,10.44-24.8,25.25-.46,16.6,12.33,28.39,26.07,32.15,19.71,5.39,46.59,1.83,59.81-17.09,2.3-3.29,4.09-6.97,5.3-10.87,2.53-8.15,2.57-18.95-3.52-25.22-4.83-4.97-12.19-6.09-18.47-3.97Z" style="fill:#fff; stroke-width:0px;"/><path d="m107.89,251.84c-4.83-4.97-12.19-6.09-18.47-3.97-.52.18-1.04.35-1.56.53-6.13,2.02-12.5,3.18-18.89,3.45-.84,1.27-1.3,2.74-1.11,4.42.19,1.73,1.26,3.16,2.17,4.58,3.02,4.75,3.94,9.81,4.5,15.42.65,6.5.17,13.08.49,19.6.13,2.74.42,5.51,1.29,8.08.23.67.5,1.33.82,1.96,11.41-2.41,22.07-8.09,28.99-17.99,2.3-3.29,4.09-6.97,5.3-10.87,2.54-8.15,2.57-18.95-3.52-25.22Z" style="fill:#42454a; stroke-width:0px;"/><path d="m89.42,247.87c-.52.18-1.04.35-1.56.53-8.14,2.68-16.68,3.85-25.15,3.43-2.72-.13-5.11-1.79-7.73-2.52-3.25-.91-6.57-1.58-9.94-1.68-13.45-.41-24.4,10.44-24.8,25.25-.46,16.6,12.33,28.39,26.07,32.15,19.71,5.39,46.59,1.83,59.81-17.09,2.3-3.29,4.09-6.97,5.3-10.87,2.53-8.15,2.57-18.95-3.52-25.22-4.83-4.97-12.19-6.09-18.47-3.97Z" style="fill:none; stroke:#301215; stroke-linecap:round; stroke-linejoin:round; stroke-width:.75px;"/><path d="m160.29,236.37c-3.3,6.05-10.87,8.28-16.92,4.99-6.05-3.3-8.28-10.87-4.99-16.92s10.87-8.28,16.92-4.99c6.05,3.3,8.28,10.87,4.99,16.92Z" style="fill:#42454a; stroke-width:0px;"/><path d="m160.29,236.37c-3.3,6.05-10.87,8.28-16.92,4.99-6.05-3.3-8.28-10.87-4.99-16.92s10.87-8.28,16.92-4.99c6.05,3.3,8.28,10.87,4.99,16.92Z" style="fill:none; stroke:#301215; stroke-linecap:round; stroke-linejoin:round; stroke-width:.75px;"/><path d="m106.95,207.32c-3.3,6.05-10.87,8.28-16.92,4.99-6.05-3.3-8.28-10.87-4.99-16.92,3.3-6.05,10.87-8.28,16.92-4.99,6.05,3.3,8.28,10.87,4.99,16.92Z" style="fill:#42454a; stroke-width:0px;"/><path d="m106.95,207.32c-3.3,6.05-10.87,8.28-16.92,4.99-6.05-3.3-8.28-10.87-4.99-16.92,3.3-6.05,10.87-8.28,16.92-4.99,6.05,3.3,8.28,10.87,4.99,16.92Z" style="fill:none; stroke:#301215; stroke-linecap:round; stroke-linejoin:round; stroke-width:.75px;"/><path d="m103.06,207.33c-1.99,3.65-6.55,4.99-10.2,3.01-3.65-1.99-4.99-6.55-3-10.2,1.99-3.65,6.55-4.99,10.2-3,3.65,1.99,4.99,6.55,3.01,10.2Z" style="fill:#e48089; stroke:#301215; stroke-linecap:round; stroke-linejoin:round; stroke-width:.75px;"/><path d="m152.84,234.29c-1.99,3.65-6.55,4.99-10.2,3.01-3.65-1.99-4.99-6.55-3-10.2,1.99-3.65,6.55-4.99,10.2-3,3.65,1.99,4.99,6.55,3.01,10.2Z" style="fill:#e48089; stroke:#301215; stroke-linecap:round; stroke-linejoin:round; stroke-width:.75px;"/><path d="m143.11,259.68c-8.49,15.59-28.54,15.77-47.52,5.43-18.98-10.34-29.7-27.28-21.21-42.87,8.49-15.59,32.99-23.94,51.97-13.6,18.98,10.34,25.25,35.45,16.76,51.04Z" style="fill:#fff; stroke-width:0px;"/><path d="m143.11,259.68c-8.49,15.59-28.54,15.77-47.52,5.43-18.98-10.34-29.7-27.28-21.21-42.87,8.49-15.59,32.99-23.94,51.97-13.6,18.98,10.34,25.25,35.45,16.76,51.04Z" style="fill:none; stroke:#301215; stroke-linecap:round; stroke-linejoin:round; stroke-width:.75px;"/><path d="m130.16,233.05c-3.45-.92-8.75.28-11.84,8.01-5.34,13.39,6.22,29.62,12.85,22.89,3.07-3.11-2.48-6.45,3.28-17.28,4.15-7.79-1.28-12.82-4.29-13.62Z" style="fill:#42454a; stroke-width:0px;"/><path d="m102.58,218.03c2.64,2.4,4.51,7.51-.31,14.29-8.35,11.75-28.26,10.84-26.2,1.62.95-4.27,6.77-1.41,12.74-12.13,4.3-7.71,11.47-5.88,13.77-3.78Z" style="fill:#42454a; stroke-width:0px;"/><path d="m129.67,246.87c-1.3,2.4-3.93,3.49-5.85,2.44-1.93-1.05-2.43-3.84-1.13-6.24,1.3-2.4,3.93-3.49,5.85-2.44,1.93,1.05,2.43,3.84,1.13,6.24Z" style="fill:#301215; stroke-width:0px;"/><path d="m91.24,225.94c-1.3,2.4-.8,5.19,1.13,6.24,1.93,1.05,4.55-.04,5.85-2.44,1.3-2.4.8-5.19-1.13-6.24-1.93-1.05-4.55.04-5.85,2.44Z" style="fill:#301215; stroke-width:0px;"/><path d="m98.86,244.97c-.11.21-1.03,2.1.8,3.1,3.12,1.7,4.95-2.15,5.37-2.93l.97.53c-.43.78-2.75,4.37.45,6.11,1.84,1,2.92-.8,3.04-1.01,0,0-.66,3.56-3.57,1.98-1.78-.97-2.46-2.26-2.49-3.52-1.07.65-2.53.79-4.31-.18-2.72-1.48-.27-4.07-.27-4.07Z" style="fill:#42454a; stroke-width:0px;"/><path d="m106.56,253.11c-.9,1.65-3.42,2.01-5.64.8-2.21-1.21-3.28-3.52-2.38-5.17.01-.02.02-.03.03-.05.15.13.34.25.55.37,1.78.97,3.24.84,4.3.18.04,1.26.72,2.55,2.5,3.52.23.13.45.22.67.29,0,.02-.01.04-.03.06Z" style="fill:#e48089; stroke-width:0px;"/><path d="m111.43,240.64l-2.66-1.15-2.41-1.61s-4.01-2.84-5.09-.86c-1.08,1.98,1.74,8.67,3.45,9.89,1.96.77,9.11-.48,10.19-2.47,1.08-1.98-3.48-3.81-3.48-3.81Z" style="fill:#301215; stroke-width:0px;"/><path d="m96.08,226.97c-.07,1.07.44,1.98,1.15,2.03s1.34-.78,1.42-1.85c.07-1.07-.44-1.98-1.15-2.03s-1.34.78-1.42,1.85Z" style="fill:#fff; stroke-width:0px;"/><path d="m127.39,243.85c-.07,1.07.44,1.98,1.15,2.03.71.05,1.34-.78,1.42-1.85.07-1.07-.44-1.98-1.15-2.03-.71-.05-1.34.78-1.42,1.85Z" style="fill:#fff; stroke-width:0px;"/><path d="m135.82,259.66c-1.03,1.67-3.65,1.91-5.86.55-2.21-1.36-3.17-3.81-2.14-5.48,1.03-1.67,3.65-1.91,5.86-.55,2.21,1.36,3.17,3.82,2.14,5.48Z" style="fill:#e48089; stroke-width:0px;"/><path d="m86.64,232.08c-1.03,1.67-3.65,1.91-5.86.55-2.21-1.36-3.17-3.81-2.14-5.48,1.03-1.67,3.65-1.91,5.86-.55,2.21,1.36,3.17,3.82,2.14,5.48Z" style="fill:#e48089; stroke-width:0px;"/><path d="m71.18,279.62c-3.74-3.02-6.53-7.04-9.11-11.1-6.42-10.08-12.06-21.36-11.71-33.31.07-2.21.37-4.5,1.59-6.34,2.09-3.16,6.54-4.15,10.15-3.02,3.61,1.14,6.45,4,8.5,7.19,2.05,3.19,3.44,6.74,5.17,10.11,2.11,4.12,4.74,8.02,8.14,11.15,4.79,4.41,11.26,7.58,13.67,13.63,1.85,4.64.5,10.3-3.03,13.78-4.03,3.97-9.28,3.94-14.44,2.49-3.24-.91-6.31-2.46-8.93-4.57Z" style="fill:#42454a; stroke-width:0px;"/><path d="m80.11,284.2c-3.24-.91-6.31-2.46-8.93-4.57-3.74-3.02-6.53-7.04-9.11-11.1-6.42-10.08-12.06-21.36-11.71-33.31.07-2.21.37-4.5,1.59-6.34,2.09-3.16,6.54-4.15,10.15-3.02,3.61,1.14,6.45,4,8.5,7.19,2.05,3.19,3.44,6.74,5.17,10.11,2.11,4.12,4.74,8.02,8.14,11.15,4.79,4.41,11.26,7.58,13.67,13.63" style="fill:none; stroke:#301215; stroke-linecap:round; stroke-linejoin:round; stroke-width:.75px;"/><path d="m45.14,291.65c3.95-1.1,7.01-4.55,8.22-8.47,1.21-3.92.73-8.23-.74-12.07-1.47-3.83-3.86-7.25-6.49-10.4-1.21-1.46-2.5-2.9-3.26-4.64-1.5-3.44-.7-7.44.57-10.97,1.27-3.53,3.01-6.97,3.35-10.71.35-3.74-1.15-8-4.6-9.45-2.63-1.11-5.77-.29-8.07,1.41-2.29,1.7-3.89,4.17-5.29,6.66-1.47,2.6-2.8,5.28-4.09,7.98-2.63,5.5-5.13,11.14-6.33,17.12-1.05,5.27-1.07,10.75-.04,16.03.69,3.54,1.87,7.03,3.96,9.97,1.79,2.51,4.36,5.19,7.19,6.51,4.8,2.23,10.55,2.45,15.62,1.03Z" style="fill:#42454a; stroke-width:0px;"/><path d="m53.36,283.18c1.21-3.92.73-8.23-.74-12.07-1.47-3.83-3.86-7.25-6.49-10.4-1.21-1.46-2.5-2.9-3.26-4.64-1.5-3.44-.7-7.44.57-10.97,1.27-3.53,3.01-6.97,3.35-10.71.35-3.74-1.15-8-4.6-9.45-2.63-1.11-5.77-.29-8.07,1.41-2.29,1.7-3.89,4.17-5.29,6.66-1.47,2.6-2.8,5.28-4.09,7.98-2.63,5.5-5.13,11.14-6.33,17.12-1.05,5.27-1.07,10.75-.04,16.03.69,3.54,1.87,7.03,3.96,9.97,1.79,2.51,4.36,5.19,7.19,6.51" style="fill:none; stroke:#301215; stroke-linecap:round; stroke-linejoin:round; stroke-width:.75px;"/><path d="m250.99,182.88c-1.62,6.7.44,13.81,3.75,19.86,3.31,6.05,7.83,11.33,11.67,17.06,3.84,5.72,7.08,12.17,7.31,19.06.16,4.88-1.19,9.66-1.85,14.5-1.09,7.96.11,16.93,6.04,22.34" style="fill:none; stroke:#301215; stroke-linecap:round; stroke-linejoin:round; stroke-width:.75px;"/><path d="m254.48,183.46c.3.36.62.75.73,1.22.21.92-.45,1.6-1.07,2-1.89,1.22-4.04,1.93-6.3,2.06-.31.02-.63.02-.93-.14-.76-.41-1.02-1.59-1.13-2.56-.16-1.31-.29-2.63-.16-3.89.13-1.26.55-2.45,1.34-3.15,2.83-2.49,5.45,1.99,7.53,4.45Z" style="fill:#8eadce; stroke-width:0px;"/><path d="m254.48,183.46c.3.36.62.75.73,1.22.21.92-.45,1.6-1.07,2-1.89,1.22-4.04,1.93-6.3,2.06-.31.02-.63.02-.93-.14-.76-.41-1.02-1.59-1.13-2.56-.16-1.31-.29-2.63-.16-3.89.13-1.26.55-2.45,1.34-3.15,2.83-2.49,5.45,1.99,7.53,4.45Z" style="fill:none; stroke:#301215; stroke-linecap:round; stroke-linejoin:round; stroke-width:.75px;"/><path d="m215.51,172.49c1.76,1.88,3.74,3.51,5.87,4.89,7.24,4.69,16.27,6.47,24.68,5.13.98-.03,1.96-.27,2.91-.62.96-.3,1.9-.7,2.69-1.27,9.7-5.25,17.03-15.27,18.15-26.55.02-.19.04-.39.05-.58.1-1.26.13-2.59.08-3.94-.31-10.41-4.91-22.82-15.67-25.34-6.59-1.54-13.55,1.78-17.71,7.12-1.21,1.56-2.2,3.26-3.03,5.05-1.74-.93-3.56-1.68-5.47-2.17-6.55-1.72-14.1-.12-18.39,5.11-3.19,3.89-4.26,9.32-3.7,14.45.83,7.39,4.54,13.38,9.53,18.71Z" style="fill:#8eadce; stroke-width:0px;"/><path d="m221.38,177.38c7.24,4.69,16.27,6.47,24.68,5.13.98-.03,1.96-.27,2.91-.62.96-.3,1.9-.7,2.69-1.27,9.7-5.25,17.03-15.27,18.15-26.55.02-.19.04-.39.05-.58.1-1.26.13-2.59.08-3.94-3.34,7.31-8.18,14.01-14.41,19.09-6.24,5.09-13.91,8.52-21.92,9.28-4.09.38-8.17.09-12.24-.53Z" style="fill:#779bbc; stroke-width:0px;"/><path d="m205.98,153.78c-.57-5.12.51-10.55,3.7-14.44,4.29-5.23,11.83-6.83,18.39-5.12,1.91.5,3.73,1.24,5.48,2.17.82-1.8,1.81-3.5,3.02-5.06,4.16-5.34,11.12-8.66,17.71-7.12,12.17,2.85,16.46,18.33,15.59,29.27-.02.2-.03.39-.05.59-1.12,11.28-8.45,21.29-18.15,26.54-.79.57-1.72.98-2.69,1.27-.95.36-1.93.6-2.91.62-10.89,1.73-22.8-1.75-30.55-10.02-4.99-5.32-8.71-11.32-9.53-18.71Z" style="fill:none; stroke:#301215; stroke-linecap:round; stroke-linejoin:round; stroke-width:.75px;"/><path d="m283.66,205.79c-4.16,5.11-4.78,10.13-3.99,16.27.86,6.71.02,13.63-2.47,19.92-1.47,3.71-3.5,7.21-4.61,11.05-1.06,3.67-1.22,7.59-.52,11.34.7,3.77,2.55,5.8,1.2,9.3-2.97,7.71-8.24,13.67-4.65,22.54" style="fill:none; stroke:#301215; stroke-linecap:round; stroke-linejoin:round; stroke-width:.75px;"/><path d="m286.41,207.71c.11.43.22.89.12,1.34-.2.87-1.04,1.18-1.74,1.27-2.12.27-4.25-.01-6.23-.82-.27-.11-.55-.24-.74-.5-.48-.66-.22-1.78.08-2.66.4-1.18.83-2.37,1.46-3.39.63-1.02,1.48-1.87,2.44-2.14,3.45-.97,3.84,3.94,4.61,6.9Z" style="fill:#f49292; stroke-width:0px;"/><path d="m286.41,207.71c.11.43.22.89.12,1.34-.2.87-1.04,1.18-1.74,1.27-2.12.27-4.25-.01-6.23-.82-.27-.11-.55-.24-.74-.5-.48-.66-.22-1.78.08-2.66.4-1.18.83-2.37,1.46-3.39.63-1.02,1.48-1.87,2.44-2.14,3.45-.97,3.84,3.94,4.61,6.9Z" style="fill:none; stroke:#301215; stroke-linecap:round; stroke-linejoin:round; stroke-width:.75px;"/><path d="m257.58,182.34c.74,2.33,1.76,4.53,3.02,6.59,4.27,6.98,11.26,12.21,19,14.51.85.38,1.79.57,2.74.66.95.14,1.91.18,2.82.01,10.45-.51,20.83-6.07,26.41-15.25.09-.15.19-.32.29-.48.6-1.04,1.17-2.16,1.69-3.34,4.01-9.03,5.16-21.53-3.01-28.1-5-4.02-12.32-4.04-18.07-1.18-1.67.83-3.22,1.88-4.66,3.08-1.11-1.5-2.36-2.9-3.79-4.1-4.9-4.15-12.01-5.88-17.82-3.17-4.32,2.02-7.47,6.22-9.09,10.84-2.32,6.66-1.61,13.31.48,19.91Z" style="fill:#f49292; stroke-width:0px;"/><path d="m260.6,188.94c4.27,6.98,11.26,12.21,19,14.51.85.38,1.79.57,2.74.66.95.14,1.91.18,2.82.01,10.45-.51,20.83-6.07,26.41-15.25.09-.15.19-.32.29-.48.6-1.04,1.17-2.16,1.69-3.34-5.86,4.88-12.74,8.62-20.15,10.41-7.43,1.79-15.39,1.58-22.55-1.06-3.65-1.35-7.03-3.28-10.25-5.48Z" style="fill:#dd6c6c; stroke-width:0px;"/><path d="m257.11,162.43c1.61-4.62,4.76-8.82,9.09-10.83,5.82-2.71,12.92-.99,17.82,3.17,1.43,1.21,2.68,2.6,3.79,4.11,1.44-1.2,2.99-2.25,4.66-3.08,5.75-2.86,13.06-2.85,18.07,1.17,9.24,7.43,6.55,22.42,1.32,31.43-.09.16-.19.32-.29.48-5.59,9.18-15.96,14.74-26.41,15.25-.91.17-1.87.13-2.82-.01-.96-.09-1.89-.28-2.74-.66-10.03-2.99-18.78-10.86-22.01-21.11-2.08-6.6-2.8-13.26-.47-19.91Z" style="fill:none; stroke:#301215; stroke-linecap:round; stroke-linejoin:round; stroke-width:.75px;"/><path d="m263.76,288.67c.85-1.49,1.56-3.06,2.08-4.7,1.61-5.09,1.33-10.61.31-15.85-.55-2.81-1.31-5.6-1.45-8.46-.15-2.86.39-5.88,2.17-8.12,1.21-1.53,3.1-2.63,5.07-2.77,4.79-.35,7.5,7.01,8.88,10.58,5.71,14.74,5.21,32.07-2.59,45.82-.76,1.35-1.82,2.8-3.37,2.91-.56.04-1.12-.12-1.66-.28-3.32-1.01-6.49-2.45-9.44-4.26-2.65-1.62-5.28-1.7-6.31-5.13-.13-.43-.23-.89-.12-1.33.13-.54.55-.95.94-1.35,2.11-2.11,4.02-4.47,5.5-7.06Z" style="fill:#42454a; stroke-width:0px;"/><path d="m263.76,288.67c.85-1.49,1.56-3.06,2.08-4.7,1.61-5.09,1.33-10.61.31-15.85-.55-2.81-1.31-5.6-1.45-8.46-.15-2.86.39-5.88,2.17-8.12,1.21-1.53,3.1-2.63,5.07-2.77,4.79-.35,7.5,7.01,8.88,10.58,5.71,14.74,5.21,32.07-2.59,45.82-.76,1.35-1.82,2.8-3.37,2.91-.56.04-1.12-.12-1.66-.28-3.32-1.01-6.49-2.45-9.44-4.26-2.65-1.62-5.28-1.7-6.31-5.13-.13-.43-.23-.89-.12-1.33.13-.54.55-.95.94-1.35,2.11-2.11,4.02-4.47,5.5-7.06Z" style="fill:none; stroke:#301215; stroke-linecap:round; stroke-linejoin:round; stroke-width:.75px;"/><path d="m288.69,338.88c.43.87.81,1.76,1.14,2.67,2.35,6.43,2.38,13.52,1.19,20.27-1.32,7.43-3.65,20.72-10.71,25.04-1.37.83-2.93,1.27-4.48,1.66-1.69.43-3.41.82-5.16.83-3.5.04-7.15-1.99-8.89-5.06-.91-1.61-1.25-3.79-.05-5.2,1.28-1.51,3.69-1.46,5.22-2.7,3.3-2.68,1.46-6.18-.36-9.13-4.13-6.69-7.54-15.6-7.76-23.52-.13-4.9,1.43-10.09,5.21-13.22,4.22-3.49,10.58-3.7,15.49-1.26,4.04,2.01,7.14,5.56,9.15,9.63Z" style="fill:#42454a; stroke-width:0px;"/><path d="m288.69,338.88c.43.87.81,1.76,1.14,2.67,2.35,6.43,2.38,13.52,1.19,20.27-1.32,7.43-3.65,20.72-10.71,25.04-1.37.83-2.93,1.27-4.48,1.66-1.69.43-3.41.82-5.16.83-3.5.04-7.15-1.99-8.89-5.06-.91-1.61-1.25-3.79-.05-5.2,1.28-1.51,3.69-1.46,5.22-2.7,3.3-2.68,1.46-6.18-.36-9.13-4.13-6.69-7.54-15.6-7.76-23.52-.13-4.9,1.43-10.09,5.21-13.22,4.22-3.49,10.58-3.7,15.49-1.26,4.04,2.01,7.14,5.56,9.15,9.63Z" style="fill:none; stroke:#301215; stroke-linecap:round; stroke-linejoin:round; stroke-width:.75px;"/><path d="m216.54,340.16c-.62-6.02-.55-12.1-.44-18.16.15-8.49.41-17.22,3.77-25.1,3.68-8.62,10.4-13.86,19.64-15.36,8.95-1.45,17.05-3.73,23.56,4.13,7.79,9.41,14.5,19.7,19.97,30.62,4.93,9.85,10.85,20.37,7.83,31.78-.96,3.64-2.78,6.99-4.88,10.12-7.42,11.06-23.46,17.44-36.38,16.65-8.62-.53-19.2-4.12-25.11-10.76-5.19-5.83-7.18-16.4-7.95-23.91Z" style="fill:#42454a; stroke-width:0px;"/><path d="m220.12,352.36c0,.97.04,1.94.14,2.9.7,6.81,3.79,13.2,7.82,18.73,4.44,6.1,12.37,17.02,20.6,17.81,1.59.15,3.19-.14,4.76-.47,1.71-.36,3.42-.76,5-1.51,3.16-1.5,5.55-4.93,5.77-8.45.11-1.84-.54-3.95-2.23-4.69-1.81-.79-3.95.31-5.88-.14-4.14-.96-4.02-4.91-3.68-8.36.78-7.82-.06-17.33-3.35-24.54-2.03-4.46-5.71-8.44-10.48-9.59-5.32-1.29-11.13,1.31-14.47,5.66-2.75,3.58-3.97,8.13-4,12.67Z" style="fill:#42454a; stroke-width:0px;"/><path d="m220.12,352.36c0,.97.04,1.94.14,2.9.7,6.81,3.79,13.2,7.82,18.73,4.44,6.1,12.37,17.02,20.6,17.81,1.59.15,3.19-.14,4.76-.47,1.71-.36,3.42-.76,5-1.51,3.16-1.5,5.55-4.93,5.77-8.45.11-1.84-.54-3.95-2.23-4.69-1.81-.79-3.95.31-5.88-.14-4.14-.96-4.02-4.91-3.68-8.36.78-7.82-.06-17.33-3.35-24.54-2.03-4.46-5.71-8.44-10.48-9.59-5.32-1.29-11.13,1.31-14.47,5.66-2.75,3.58-3.97,8.13-4,12.67Z" style="fill:none; stroke:#301215; stroke-linecap:round; stroke-linejoin:round; stroke-width:.75px;"/><path d="m250.27,314.12c7.76-2.35,16.08-1.44,24.13-.51,2.61.3,5.28.63,7.86,1.21.25.49.52.98.77,1.48,4.93,9.85,10.85,20.37,7.83,31.78-.96,3.64-2.78,6.99-4.88,10.12-7.42,11.06-23.46,17.44-36.38,16.65-8.62-.53-19.2-4.12-25.11-10.76-4.69-5.26-6.76-14.39-7.69-21.64.89-2.6,2.12-5.1,3.65-7.37,6.69-10,18.47-17.51,29.82-20.94Z" style="fill:#fff; stroke-width:0px;"/><path d="m216.54,340.16c-.62-6.02-.55-12.1-.44-18.16.15-8.49.41-17.22,3.77-25.1,3.68-8.62,10.4-13.86,19.64-15.36,8.95-1.45,17.05-3.73,23.56,4.13,7.79,9.41,14.5,19.7,19.97,30.62,4.93,9.85,10.85,20.37,7.83,31.78-.96,3.64-2.78,6.99-4.88,10.12-7.42,11.06-23.46,17.44-36.38,16.65-8.62-.53-19.2-4.12-25.11-10.76-5.19-5.83-7.18-16.4-7.95-23.91Z" style="fill:none; stroke:#301215; stroke-linecap:round; stroke-linejoin:round; stroke-width:.75px;"/><path d="m231.25,314.6c-.33.6-.66,1.2-1.02,1.78-1.64,2.75-3.85,5.15-5.19,8.06-2.18,4.77-1.91,10.49-2.36,15.68-.21,2.36-.55,4.99-2.38,6.49-2.02,1.65-5.2,1.17-7.22-.48-2.02-1.65-3.11-4.18-3.86-6.69-3.51-11.73-2.67-26.84,2.59-37.94,1.87-3.95,4.86-7.99,9.19-8.53,3.24-.41,7.37,1.21,10.12,2.91,2.03,1.25,3.87,3.42,4.48,5.78.54,2.09-.51,3.99-1.22,5.95-.87,2.4-1.92,4.74-3.13,6.99Z" style="fill:#42454a; stroke-width:0px;"/><path d="m230.24,316.38c-1.64,2.75-3.85,5.15-5.19,8.06-2.18,4.77-1.91,10.49-2.36,15.68-.21,2.36-.55,4.99-2.38,6.49-2.02,1.65-5.2,1.17-7.22-.48-2.02-1.65-3.11-4.18-3.86-6.69-3.51-11.73-2.67-26.84,2.59-37.94,1.87-3.95,4.86-7.99,9.19-8.53" style="fill:none; stroke:#301215; stroke-linecap:round; stroke-linejoin:round; stroke-width:.75px;"/><path d="m192.18,268.07c-5.58-4.38-5.66-10.19-1.07-16.04,4.59-5.85,9.78-7.21,15.37-2.82,5.58,4.38,9.45,12.84,4.85,18.7-4.59,5.85-13.57,4.55-19.15.17Z" style="fill:#42454a; stroke-width:0px;"/><path d="m192.18,268.07c-5.58-4.38-5.66-10.19-1.07-16.04,4.59-5.85,9.78-7.21,15.37-2.82,5.58,4.38,9.45,12.84,4.85,18.7-4.59,5.85-13.57,4.55-19.15.17Z" style="fill:none; stroke:#301215; stroke-linecap:round; stroke-linejoin:round; stroke-width:.75px;"/><path d="m197.42,264.29c-3.08-2.41-3.12-5.61-.59-8.84s5.39-3.97,8.47-1.56c3.08,2.41,5.21,7.08,2.67,10.3-2.53,3.22-7.47,2.51-10.55.09Z" style="fill:#e48089; stroke:#301215; stroke-linecap:round; stroke-linejoin:round; stroke-width:.75px;"/><path d="m254.7,239.4c.8-7.05-3.28-11.18-10.67-12.02-7.39-.84-12,1.91-12.8,8.96-.8,7.05,2.52,15.74,9.91,16.58,7.39.84,12.76-6.47,13.56-13.52Z" style="fill:#42454a; stroke-width:0px;"/><path d="m254.7,239.4c.8-7.05-3.28-11.18-10.67-12.02-7.39-.84-12,1.91-12.8,8.96-.8,7.05,2.52,15.74,9.91,16.58,7.39.84,12.76-6.47,13.56-13.52Z" style="fill:none; stroke:#301215; stroke-linecap:round; stroke-linejoin:round; stroke-width:.75px;"/><path d="m248.9,239.66c.44-3.89-1.81-6.16-5.88-6.62-4.07-.46-6.61,1.05-7.05,4.94-.44,3.89,1.39,8.67,5.46,9.13,4.07.46,7.03-3.56,7.47-7.45Z" style="fill:#e48089; stroke:#301215; stroke-linecap:round; stroke-linejoin:round; stroke-width:.75px;"/><path d="m263.78,257.38c.86,1.04,5.33,3.09,7.41,7.79,9.18,20.79-28.57,44.52-50.28,39.39-7.11-1.68-12.15-6.89-15.08-13.48-3.69-8.29-14.49-34.63,17.52-48.02,24.56-10.28,34.68,7.38,40.44,14.32Z" style="fill:#fff; stroke-width:0px;"/><path d="m263.78,257.38c.86,1.04,5.33,3.09,7.41,7.79,9.18,20.79-28.57,44.52-50.28,39.39-7.11-1.68-12.15-6.89-15.08-13.48-3.69-8.29-14.49-34.63,17.52-48.02,24.56-10.28,34.68,7.38,40.44,14.32Z" style="fill:none; stroke:#301215; stroke-linecap:round; stroke-linejoin:round; stroke-width:.75px;"/><path d="m225.04,264.55s-8.26.89-11.18,9.89c-2.92,9.01-.73,18.35,6.52,18.08,7.19-.27,12.26-5.94,11.31-10.22-1.88-8.47,2.99-17.45-6.65-17.75Z" style="fill:#42454a; stroke-width:0px;"/><path d="m244.36,256.47s5.26-4.77,12.83-.15c7.56,4.62,12.45,12.84,8.16,17.39-4.25,4.52-10.84,3.73-13.12,0-4.49-7.38-13.14-10.7-7.87-17.24Z" style="fill:#42454a; stroke-width:0px;"/><path d="m246.36,270.08s-1.59-.82-5.55.86c-4.01,1.7-4.55,3.37-4.47,3.55.08.18,3.86,3.64,6.92,2.36,3.07-1.28,3.53-4.46,3.1-6.77Z" style="fill:#301215; stroke-width:0px;"/><path d="m239.86,284.9c1.31,3.13,4.91,4.62,8.06,3.3,3.13-1.31,4.61-4.92,3.3-8.06-.13-.31-.28-.61-.46-.89-.25.19-.55.35-.91.51-2.39,1-4.23.64-5.51-.34-.21,1.6-1.24,3.16-3.64,4.16-.43.18-.81.28-1.16.3.07.34.18.68.32,1.01Z" style="fill:#d50c19; stroke:#301215; stroke-linecap:round; stroke-linejoin:round; stroke-width:.75px;"/><path d="m245.99,282.35c2.2-.06,4.18.75,5.41,2.04-.53,1.66-1.75,3.09-3.49,3.82-2.95,1.23-6.3,0-7.79-2.74,1.03-1.78,3.25-3.04,5.86-3.12Z" style="fill:#e48089; stroke:#301215; stroke-linecap:round; stroke-linejoin:round; stroke-width:.75px;"/><path d="m236.41,280.6c.12.28,1.27,2.72,3.74,1.68,3.54-1.48,2.89-4.1,2.45-5.15l1.31-.55c.44,1.06,1.85,3.35,5.39,1.87,2.47-1.03,1.54-3.56,1.43-3.84,0,0,3.03,3.52-.88,5.15-2.39,1-4.23.64-5.51-.33-.21,1.6-1.24,3.16-3.63,4.16-3.67,1.53-4.29-2.99-4.29-2.99Z" style="fill:#301215; stroke-width:0px;"/><path d="m223.93,286.56c.65,1.54-.96,3.69-3.59,4.79-2.63,1.1-5.29.74-5.93-.8-.65-1.54.96-3.69,3.59-4.79,2.63-1.1,5.29-.74,5.93.8Z" style="fill:#e48089; stroke-width:0px;"/><path d="m268.42,267.94c.65,1.54-.96,3.69-3.59,4.79-2.63,1.1-5.29.74-5.93-.8-.65-1.54.96-3.69,3.59-4.79,2.63-1.1,5.29-.74,5.93.8Z" style="fill:#e48089; stroke-width:0px;"/><path d="m230.24,274.33c.1.11.19.25.19.4-.02.35-.5.43-.86.42-1.92-.09-3.85.31-5.58,1.15-1,.48-1.92,1.11-2.83,1.73-.31-.66,0-1.44.41-2.05.92-1.39,2.6-2.84,4.29-3.16,1.4-.27,3.47.47,4.38,1.52Z" style="fill:#301215; stroke-width:0px;"/><path d="m248.57,266.66c.01.15.04.31.15.41.26.24.66-.05.9-.32,1.28-1.42,2.93-2.52,4.73-3.16,1.04-.37,2.13-.59,3.22-.8-.25-.68-1.03-1.01-1.75-1.15-1.64-.32-3.84-.14-5.26.84-1.17.81-2.1,2.8-1.99,4.19Z" style="fill:#301215; stroke-width:0px;"/><path d="m182.46,304.56l-4.43,4.39c-.21.21-.5.33-.8.33l-6.23.03c-.85,0-1.41.91-1.02,1.67l2.81,5.57c.14.27.16.58.07.87l-1.9,5.94c-.26.81.43,1.62,1.27,1.49l6.16-.95c.3-.05.6.03.85.2l5.06,3.64c.69.5,1.67.09,1.81-.75l1-6.15c.05-.3.21-.56.45-.74l5.03-3.69c.69-.51.61-1.56-.15-1.95l-5.54-2.85c-.27-.14-.47-.38-.57-.66l-1.96-5.92c-.27-.81-1.3-1.06-1.9-.46Z" style="fill:#f49292; stroke-width:0px;"/><path d="m154.18,273.06l-.26,4.39c-.01.21-.11.41-.27.55l-3.26,2.95c-.45.4-.31,1.14.25,1.36l4.09,1.6c.2.08.36.23.44.42l1.8,4.01c.25.55.98.65,1.37.18l2.79-3.4c.13-.16.33-.27.54-.29l4.37-.47c.6-.06.92-.74.6-1.24l-2.37-3.7c-.11-.18-.15-.4-.11-.6l.9-4.3c.12-.59-.42-1.1-1-.95l-4.25,1.11c-.21.05-.42.02-.61-.08l-3.81-2.19c-.52-.3-1.18.05-1.21.66Z" style="fill:#f49292; stroke-width:0px;"/><path d="m316.18,320.29l-.26,4.39c-.01.21-.11.41-.27.55l-3.26,2.95c-.45.4-.31,1.14.25,1.36l4.09,1.6c.2.08.36.23.44.42l1.8,4.01c.25.55.98.65,1.37.18l2.79-3.4c.13-.16.33-.27.54-.29l4.37-.47c.6-.06.92-.74.6-1.24l-2.37-3.7c-.11-.18-.15-.4-.11-.6l.9-4.3c.12-.59-.42-1.1-1-.95l-4.25,1.11c-.21.05-.42.02-.61-.08l-3.81-2.19c-.52-.3-1.18.05-1.21.66Z" style="fill:#f49292; stroke-width:0px;"/><path d="m159.44,425.28c-.52,0-1-.34-1.15-.85-2.05-7.4-1.83-15.81.65-24.31,2.39-8.22,6.49-15.01,11.85-19.63,6.3-5.45,14.39-7.77,21.64-6.21,8.79,1.89,16.49,9.6,20.1,20.13,3.12,9.1,3.15,18.92,2.9,29.02-.02.62-.54,1.12-1.18,1.12,0,0-.02,0-.03,0-.65-.02-1.17-.54-1.16-1.17.25-9.89.22-19.5-2.78-28.25-2.63-7.65-8.83-16.56-18.37-18.61-6.5-1.4-13.81.73-19.54,5.68-5.02,4.34-8.87,10.75-11.14,18.55-2.36,8.1-2.58,16.09-.64,23.1.17.61-.21,1.24-.84,1.4-.1.03-.21.04-.31.04Z" style="fill:#f49292; stroke-width:0px;"/><path d="m167.53,425.28c-.55,0-1.04-.37-1.16-.91-1.43-6.49-1.27-13.86.45-21.32,1.67-7.23,4.54-13.2,8.29-17.29,4.51-4.91,10.34-6.99,15.58-5.57,7.48,2.02,12.26,10.54,14.25,17.83,2.18,7.99,2.2,16.61,2.02,25.48-.01.63-.54,1.12-1.19,1.12h-.02c-.65-.01-1.18-.53-1.16-1.17.17-8.7.16-17.15-1.94-24.85-2.32-8.53-7.15-14.74-12.6-16.21-4.35-1.17-9.27.65-13.17,4.88-3.49,3.79-6.17,9.42-7.75,16.27-1.65,7.14-1.81,14.17-.45,20.34.14.62-.27,1.23-.91,1.36-.08.02-.17.03-.25.03Z" style="fill:#f49292; stroke-width:0px;"/><path d="m174.56,425.28c-.57,0-1.08-.4-1.17-.97-.89-5.41-.79-11.56.28-17.78.73-4.21,2.22-10.14,5.19-14.47,2.95-4.3,6.83-6.1,10.37-4.81,4.09,1.48,7.5,7.12,9.12,15.08,1.36,6.66,1.37,13.86,1.26,21.27,0,.63-.58,1.14-1.2,1.13-.65,0-1.18-.53-1.17-1.16.11-7.28.1-14.35-1.21-20.8-1.42-6.96-4.41-12.21-7.63-13.38-2.44-.89-5.27.58-7.56,3.93-2.17,3.16-3.84,7.85-4.82,13.58-1.03,5.98-1.13,11.87-.28,17.04.1.62-.34,1.21-.99,1.31-.06,0-.13.01-.19.01Z" style="fill:#f49292; stroke-width:0px;"/><path d="m51.98,379.52c6.35,0,12.7-.01,19.05,0h9.55c2.46-1.81,4.25-6.18,4.71-8.65.42-2.27.07-4.77-1.37-6.58-1.52-1.92-4.21-2.83-6.58-2.23-2.39.6-4.95,2.53-7.01,1.18-1.1-.72-1.5-2.17-1.48-3.49s.37-2.61.4-3.93c.1-4.57-4.06-8.56-8.61-9-4.55-.44-9.04,2.21-11.58,6-1.96,2.93-3.45,6.9-6.92,7.53-2.33.42-4.65-.99-6.19-2.79-1.55-1.8-2.57-3.98-4-5.87-5.86-7.72-13.91-7.05-20.72-1.08-8.97,7.86-9.58,19.63-1.96,28.9.55.67,6.13,0,6.96,0h35.77Z" style="fill:#fff; stroke-width:0px;"/><path d="m112.1,358.7c-.69-1.23-3.21-1.5-4.88-.44-.84.54-1.51,1.42-1.61,2.41-.09,1,.49,2.07,1.45,2.36.48.15,1.01.09,1.5-.03,1.05-.26,2.02-.84,2.75-1.64,1.02-1.12,1.15-2.02.79-2.67Z" style="fill:#fff; stroke-width:0px;"/><path d="m117.56,362.58c-.41.83-.52,1.97.19,2.56.51.42,1.24.4,1.88.25,1.1-.25,2.13-.8,2.95-1.59.69-.66,1.25-1.64.94-2.55-1.05-3.08-5.12-.37-5.96,1.33Z" style="fill:#fff; stroke-width:0px;"/><path d="m103.22,369.71c-.83.48-1.54,1.24-1.77,2.17-.08.31-.09.65.04.95.25.56.94.79,1.55.76,1.22-.04,2.31-.78,3.19-1.62.49-.46.97-1.02,1.02-1.69.17-2.31-3.06-1.12-4.03-.57Z" style="fill:#fff; stroke-width:0px;"/><path d="m117.33,375.99c.31-2.71-4.73-.12-5.33,1.01-.14.26-.25.55-.23.84.04.47.44.85.88.99.45.14.93.08,1.38-.05,1.19-.32,2.25-1.07,2.97-2.08.15-.21.29-.45.32-.71Z" style="fill:#fff; stroke-width:0px;"/><path d="m265.1,413.7c-.69-1.23-3.21-1.5-4.88-.44-.84.54-1.51,1.42-1.61,2.41-.09,1,.49,2.07,1.45,2.36.48.15,1.01.09,1.5-.03,1.05-.26,2.02-.84,2.75-1.64,1.02-1.12,1.15-2.02.79-2.67Z" style="fill:#fff; stroke-width:0px;"/><path d="m270.56,417.58c-.41.83-.52,1.97.19,2.56.51.42,1.24.4,1.88.25,1.1-.25,2.13-.8,2.95-1.59.69-.66,1.25-1.64.94-2.55-1.05-3.08-5.12-.37-5.96,1.33Z" style="fill:#fff; stroke-width:0px;"/><path d="m256.22,424.71c-.83.48-1.54,1.24-1.77,2.17-.08.31-.09.65.04.95.25.56.94.79,1.55.76,1.22-.04,2.31-.78,3.19-1.62.49-.46.97-1.02,1.02-1.69.17-2.31-3.06-1.12-4.03-.57Z" style="fill:#fff; stroke-width:0px;"/><path d="m270.33,430.99c.31-2.71-4.73-.12-5.33,1.01-.14.26-.25.55-.23.84.04.47.44.85.88.99.45.14.93.08,1.38-.05,1.19-.32,2.25-1.07,2.97-2.08.15-.21.29-.45.32-.71Z" style="fill:#fff; stroke-width:0px;"/><path d="m135.93,334.52c.78-1.17,1.11-3.18,1.17-4.28.14-2.46-1.27-5.37-3.73-5.46-1.61-.06-2.98,1.49-4.5.4-.81-.58-1.25-1.54-1.6-2.48-.87-2.29-1.55-5.01-3.51-6.64-2.23-1.86-5.19-2.22-7.97-1.55-1.67.4-3.24,1.31-4.29,2.69-1.05,1.38-1.24,3.13-1.88,4.7-.52,1.28-1.52,2.53-2.9,2.69-2.04.24-3.47-1.87-5.26-2.88-1.9-1.08-4.38-.85-6.24.29-4.69,2.87-4.3,8.46-1.56,12.53h42.27Z" style="fill:#fff; stroke-width:0px;"/><path d="m187.87,189.27c-.99-1.01-3.49-.62-4.83.83-.68.74-1.1,1.76-.93,2.75.17.99,1.01,1.87,2.01,1.91.51.02,1-.17,1.44-.41.95-.52,1.73-1.33,2.23-2.29.69-1.34.59-2.25.07-2.78Z" style="fill:#fff; stroke-width:0px;"/><path d="m194.15,191.61c-.18.91,0,2.04.84,2.43.6.27,1.3.06,1.88-.24,1-.53,1.85-1.33,2.44-2.29.5-.82.79-1.91.26-2.71-1.8-2.7-5.04.96-5.42,2.82Z" style="fill:#fff; stroke-width:0px;"/><path d="m182.12,202.19c-.68.68-1.17,1.59-1.15,2.55,0,.32.08.65.28.91.38.48,1.11.52,1.7.34,1.17-.35,2.03-1.35,2.67-2.39.35-.57.67-1.24.55-1.9-.44-2.28-3.25-.3-4.04.49Z" style="fill:#fff; stroke-width:0px;"/><path d="m197.37,204.62c-.39-2.7-4.6,1.11-4.89,2.35-.07.29-.1.59,0,.87.16.44.64.71,1.11.73.47.02.92-.17,1.33-.4,1.06-.62,1.9-1.62,2.33-2.77.09-.25.17-.51.13-.77Z" style="fill:#fff; stroke-width:0px;"/><path d="m-11.09,320.29l-.26,4.39c-.01.21-.11.41-.27.55l-3.26,2.95c-.45.4-.31,1.14.25,1.36l4.09,1.6c.2.08.36.23.44.42l1.8,4.01c.25.55.98.65,1.37.18l2.79-3.4c.13-.16.33-.27.54-.29l4.37-.47c.6-.06.92-.74.6-1.24l-2.37-3.7c-.11-.18-.15-.4-.11-.6l.9-4.3c.12-.59-.42-1.1-1-.95l-4.25,1.11c-.21.05-.42.02-.61-.08l-3.81-2.19c-.52-.3-1.18.05-1.21.66Z" style="fill:#f49292; stroke-width:0px;"/><path d="m206.79,29.69c-.22,3.19-2.98,5.59-6.17,5.37-3.19-.22-5.59-2.98-5.37-6.17.22-3.19,2.98-5.59,6.17-5.37,3.19.22,5.59,2.98,5.37,6.17Z" style="fill:#42454a; stroke-width:0px;"/><path d="m253.06-27.65c-.52.18-1.04.35-1.56.53-8.14,2.68-16.68,3.85-25.15,3.43-2.72-.13-5.11-1.79-7.73-2.52-3.25-.91-6.57-1.58-9.94-1.68-13.45-.41-24.4,10.44-24.8,25.25-.46,16.6,12.33,28.39,26.07,32.15,19.71,5.39,46.59,1.83,59.81-17.09,2.3-3.29,4.09-6.97,5.3-10.87,2.53-8.15,2.57-18.95-3.52-25.22-4.83-4.97-12.19-6.09-18.47-3.97Z" style="fill:#fff; stroke-width:0px;"/><path d="m271.53-23.68c-4.83-4.97-12.19-6.09-18.47-3.97-.52.18-1.04.35-1.56.53-6.13,2.02-12.5,3.18-18.89,3.45-.84,1.27-1.3,2.74-1.11,4.42.19,1.73,1.26,3.16,2.17,4.58,3.02,4.75,3.94,9.81,4.5,15.42.65,6.5.17,13.08.49,19.6.13,2.74.42,5.51,1.29,8.08.23.67.5,1.33.82,1.96,11.41-2.41,22.07-8.09,28.99-17.99,2.3-3.29,4.09-6.97,5.3-10.87,2.54-8.15,2.57-18.95-3.52-25.22Z" style="fill:#42454a; stroke-width:0px;"/><path d="m253.06-27.65c-.52.18-1.04.35-1.56.53-8.14,2.68-16.68,3.85-25.15,3.43-2.72-.13-5.11-1.79-7.73-2.52-3.25-.91-6.57-1.58-9.94-1.68-13.45-.41-24.4,10.44-24.8,25.25-.46,16.6,12.33,28.39,26.07,32.15,19.71,5.39,46.59,1.83,59.81-17.09,2.3-3.29,4.09-6.97,5.3-10.87,2.53-8.15,2.57-18.95-3.52-25.22-4.83-4.97-12.19-6.09-18.47-3.97Z" style="fill:none; stroke:#301215; stroke-linecap:round; stroke-linejoin:round; stroke-width:.75px;"/><path d="m234.82,4.1c-3.74-3.02-6.53-7.04-9.11-11.1-6.42-10.08-12.06-21.36-11.71-33.31.07-2.21.37-4.5,1.59-6.34,2.09-3.16,6.54-4.15,10.15-3.02,3.61,1.14,6.45,4,8.5,7.19,2.05,3.19,3.44,6.74,5.17,10.11,2.11,4.12,4.74,8.02,8.14,11.15,4.79,4.41,11.26,7.58,13.67,13.63,1.85,4.64.5,10.3-3.03,13.78-4.03,3.97-9.28,3.94-14.44,2.49-3.24-.91-6.31-2.46-8.93-4.57Z" style="fill:#42454a; stroke-width:0px;"/><path d="m243.75,8.68c-3.24-.91-6.31-2.46-8.93-4.57-3.74-3.02-6.53-7.04-9.11-11.1-6.42-10.08-12.06-21.36-11.71-33.31.07-2.21.37-4.5,1.59-6.34,2.09-3.16,6.54-4.15,10.15-3.02,3.61,1.14,6.45,4,8.5,7.19,2.05,3.19,3.44,6.74,5.17,10.11,2.11,4.12,4.74,8.02,8.14,11.15,4.79,4.41,11.26,7.58,13.67,13.63" style="fill:none; stroke:#301215; stroke-linecap:round; stroke-linejoin:round; stroke-width:.75px;"/><path d="m208.78,16.13c3.95-1.1,7.01-4.55,8.22-8.47,1.21-3.92.73-8.23-.74-12.07-1.47-3.83-3.86-7.25-6.49-10.4-1.21-1.46-2.5-2.9-3.26-4.64-1.5-3.44-.7-7.44.57-10.97,1.27-3.53,3.01-6.97,3.35-10.71.35-3.74-1.15-8-4.6-9.45-2.63-1.11-5.77-.29-8.07,1.41-2.29,1.7-3.89,4.17-5.29,6.66-1.47,2.6-2.8,5.28-4.09,7.98-2.63,5.5-5.13,11.14-6.33,17.12-1.05,5.27-1.07,10.75-.04,16.03.69,3.54,1.87,7.03,3.96,9.97,1.79,2.51,4.36,5.19,7.19,6.51,4.8,2.23,10.55,2.45,15.62,1.03Z" style="fill:#42454a; stroke-width:0px;"/><path d="m217,7.66c1.21-3.92.73-8.23-.74-12.07-1.47-3.83-3.86-7.25-6.49-10.4-1.21-1.46-2.5-2.9-3.26-4.64-1.5-3.44-.7-7.44.57-10.97,1.27-3.53,3.01-6.97,3.35-10.71.35-3.74-1.15-8-4.6-9.45-2.63-1.11-5.77-.29-8.07,1.41-2.29,1.7-3.89,4.17-5.29,6.66-1.47,2.6-2.8,5.28-4.09,7.98-2.63,5.5-5.13,11.14-6.33,17.12-1.05,5.27-1.07,10.75-.04,16.03.69,3.54,1.87,7.03,3.96,9.97,1.79,2.51,4.36,5.19,7.19,6.51" style="fill:none; stroke:#301215; stroke-linecap:round; stroke-linejoin:round; stroke-width:.75px;"/><path d="m317.82-2.47l-.26,4.39c-.01.21-.11.41-.27.55l-3.26,2.95c-.45.4-.31,1.14.25,1.36l4.09,1.6c.2.08.36.23.44.42l1.8,4.01c.25.55.98.65,1.37.18l2.79-3.4c.13-.16.33-.27.54-.29l4.37-.47c.6-.06.92-.74.6-1.24l-2.37-3.7c-.11-.18-.15-.4-.11-.6l.9-4.3c.12-.59-.42-1.1-1-.95l-4.25,1.11c-.21.05-.42.02-.61-.08l-3.81-2.19c-.52-.3-1.18.05-1.21.66Z" style="fill:#f49292; stroke-width:0px;"/><path d="m323.08,149.76c-.52,0-1-.34-1.15-.85-2.05-7.4-1.83-15.81.65-24.31,2.39-8.22,6.49-15.01,11.85-19.63,6.3-5.45,14.39-7.77,21.64-6.21,8.79,1.89,16.49,9.6,20.1,20.13,3.12,9.1,3.15,18.92,2.9,29.02-.02.62-.54,1.12-1.18,1.12,0,0-.02,0-.03,0-.65-.02-1.17-.54-1.16-1.17.25-9.89.22-19.5-2.78-28.25-2.63-7.65-8.83-16.56-18.37-18.61-6.5-1.4-13.81.73-19.54,5.68-5.02,4.34-8.87,10.75-11.14,18.55-2.36,8.1-2.58,16.09-.64,23.1.17.61-.21,1.24-.84,1.4-.1.03-.21.04-.31.04Z" style="fill:#f49292; stroke-width:0px;"/><path d="m215.62,104c6.35,0,12.7-.01,19.05,0h9.55c2.46-1.81,4.25-6.18,4.71-8.65.42-2.27.07-4.77-1.37-6.58-1.52-1.92-4.21-2.83-6.58-2.23-2.39.6-4.95,2.53-7.01,1.18-1.1-.72-1.5-2.17-1.48-3.49s.37-2.61.4-3.93c.1-4.57-4.06-8.56-8.61-9-4.55-.44-9.04,2.21-11.58,6-1.96,2.93-3.45,6.9-6.92,7.53-2.33.42-4.65-.99-6.19-2.79-1.55-1.8-2.57-3.98-4-5.87-5.86-7.72-13.91-7.05-20.72-1.08-8.97,7.86-9.58,19.63-1.96,28.9.55.67,6.13,0,6.96,0h35.77Z" style="fill:#fff; stroke-width:0px;"/><path d="m275.74,83.18c-.69-1.23-3.21-1.5-4.88-.44-.84.54-1.51,1.42-1.61,2.41-.09,1,.49,2.07,1.45,2.36.48.15,1.01.09,1.5-.03,1.05-.26,2.02-.84,2.75-1.64,1.02-1.12,1.15-2.02.79-2.67Z" style="fill:#fff; stroke-width:0px;"/><path d="m281.2,87.06c-.41.83-.52,1.97.19,2.56.51.42,1.24.4,1.88.25,1.1-.25,2.13-.8,2.95-1.59.69-.66,1.25-1.64.94-2.55-1.05-3.08-5.12-.37-5.96,1.33Z" style="fill:#fff; stroke-width:0px;"/><path d="m266.86,94.19c-.83.48-1.54,1.24-1.77,2.17-.08.31-.09.65.04.95.25.56.94.79,1.55.76,1.22-.04,2.31-.78,3.19-1.62.49-.46.97-1.02,1.02-1.69.17-2.31-3.06-1.12-4.03-.57Z" style="fill:#fff; stroke-width:0px;"/><path d="m280.96,100.46c.31-2.71-4.73-.12-5.33,1.01-.14.26-.25.55-.23.84.04.47.44.85.88.99.45.14.93.08,1.38-.05,1.19-.32,2.25-1.07,2.97-2.08.15-.21.29-.45.32-.71Z" style="fill:#fff; stroke-width:0px;"/><path d="m299.56,59c.78-1.17,1.11-3.18,1.17-4.28.14-2.46-1.27-5.37-3.73-5.46-1.61-.06-2.98,1.49-4.5.4-.81-.58-1.25-1.54-1.6-2.48-.87-2.29-1.55-5.01-3.51-6.64-2.23-1.86-5.19-2.22-7.97-1.55-1.67.4-3.24,1.31-4.29,2.69-1.05,1.38-1.24,3.13-1.88,4.7-.52,1.28-1.52,2.53-2.9,2.69-2.04.24-3.47-1.87-5.26-2.88-1.9-1.08-4.38-.85-6.24.29-4.69,2.87-4.3,8.46-1.56,12.53h42.27Z" style="fill:#fff; stroke-width:0px;"/><path d="m87.36-92.64c-1.62,6.7.44,13.81,3.75,19.86,3.31,6.05,7.83,11.33,11.67,17.06,3.84,5.72,7.08,12.17,7.31,19.06.16,4.88-1.19,9.66-1.85,14.5-1.09,7.96.11,16.93,6.04,22.34" style="fill:none; stroke:#301215; stroke-linecap:round; stroke-linejoin:round; stroke-width:.75px;"/><path d="m120.03-69.73c-4.16,5.11-4.78,10.13-3.99,16.27.86,6.71.02,13.63-2.47,19.92-1.47,3.71-3.5,7.21-4.61,11.05-1.06,3.67-1.22,7.59-.52,11.34.7,3.77,2.55,5.8,1.2,9.3-2.97,7.71-8.24,13.67-4.65,22.54" style="fill:none; stroke:#301215; stroke-linecap:round; stroke-linejoin:round; stroke-width:.75px;"/><path d="m100.12,13.14c.85-1.49,1.56-3.06,2.08-4.7,1.61-5.09,1.33-10.61.31-15.85-.55-2.81-1.31-5.6-1.45-8.46-.15-2.86.39-5.88,2.17-8.12,1.21-1.53,3.1-2.63,5.07-2.77,4.79-.35,7.5,7.01,8.88,10.58,5.71,14.74,5.21,32.07-2.59,45.82-.76,1.35-1.82,2.8-3.37,2.91-.56.04-1.12-.12-1.66-.28-3.32-1.01-6.49-2.45-9.44-4.26-2.65-1.62-5.28-1.7-6.31-5.13-.13-.43-.23-.89-.12-1.33.13-.54.55-.95.94-1.35,2.11-2.11,4.02-4.47,5.5-7.06Z" style="fill:#42454a; stroke-width:0px;"/><path d="m100.12,13.14c.85-1.49,1.56-3.06,2.08-4.7,1.61-5.09,1.33-10.61.31-15.85-.55-2.81-1.31-5.6-1.45-8.46-.15-2.86.39-5.88,2.17-8.12,1.21-1.53,3.1-2.63,5.07-2.77,4.79-.35,7.5,7.01,8.88,10.58,5.71,14.74,5.21,32.07-2.59,45.82-.76,1.35-1.82,2.8-3.37,2.91-.56.04-1.12-.12-1.66-.28-3.32-1.01-6.49-2.45-9.44-4.26-2.65-1.62-5.28-1.7-6.31-5.13-.13-.43-.23-.89-.12-1.33.13-.54.55-.95.94-1.35,2.11-2.11,4.02-4.47,5.5-7.06Z" style="fill:none; stroke:#301215; stroke-linecap:round; stroke-linejoin:round; stroke-width:.75px;"/><path d="m125.05,63.36c.43.87.81,1.76,1.14,2.67,2.35,6.43,2.38,13.52,1.19,20.27-1.32,7.43-3.65,20.72-10.71,25.04-1.37.83-2.93,1.27-4.48,1.66-1.69.43-3.41.82-5.16.83-3.5.04-7.15-1.99-8.89-5.06-.91-1.61-1.25-3.79-.05-5.2,1.28-1.51,3.69-1.46,5.22-2.7,3.3-2.68,1.46-6.18-.36-9.13-4.13-6.69-7.54-15.6-7.76-23.52-.13-4.9,1.43-10.09,5.21-13.22,4.22-3.49,10.58-3.7,15.49-1.26,4.04,2.01,7.14,5.56,9.15,9.63Z" style="fill:#42454a; stroke-width:0px;"/><path d="m125.05,63.36c.43.87.81,1.76,1.14,2.67,2.35,6.43,2.38,13.52,1.19,20.27-1.32,7.43-3.65,20.72-10.71,25.04-1.37.83-2.93,1.27-4.48,1.66-1.69.43-3.41.82-5.16.83-3.5.04-7.15-1.99-8.89-5.06-.91-1.61-1.25-3.79-.05-5.2,1.28-1.51,3.69-1.46,5.22-2.7,3.3-2.68,1.46-6.18-.36-9.13-4.13-6.69-7.54-15.6-7.76-23.52-.13-4.9,1.43-10.09,5.21-13.22,4.22-3.49,10.58-3.7,15.49-1.26,4.04,2.01,7.14,5.56,9.15,9.63Z" style="fill:none; stroke:#301215; stroke-linecap:round; stroke-linejoin:round; stroke-width:.75px;"/><path d="m52.9,64.64c-.62-6.02-.55-12.1-.44-18.16.15-8.49.41-17.22,3.77-25.1,3.68-8.62,10.4-13.86,19.64-15.36,8.95-1.45,17.05-3.73,23.56,4.13,7.79,9.41,14.5,19.7,19.97,30.62,4.93,9.85,10.85,20.37,7.83,31.78-.96,3.64-2.78,6.99-4.88,10.12-7.42,11.06-23.46,17.44-36.38,16.65-8.62-.53-19.2-4.12-25.11-10.76-5.19-5.83-7.18-16.4-7.95-23.91Z" style="fill:#42454a; stroke-width:0px;"/><path d="m56.48,76.84c0,.97.04,1.94.14,2.9.7,6.81,3.79,13.2,7.82,18.73,4.44,6.1,12.37,17.02,20.6,17.81,1.59.15,3.19-.14,4.76-.47,1.71-.36,3.42-.76,5-1.51,3.16-1.5,5.55-4.93,5.77-8.45.11-1.84-.54-3.95-2.23-4.69-1.81-.79-3.95.31-5.88-.14-4.14-.96-4.02-4.91-3.68-8.36.78-7.82-.06-17.33-3.35-24.54-2.03-4.46-5.71-8.44-10.48-9.59-5.32-1.29-11.13,1.31-14.47,5.66-2.75,3.58-3.97,8.13-4,12.67Z" style="fill:#42454a; stroke-width:0px;"/><path d="m56.48,76.84c0,.97.04,1.94.14,2.9.7,6.81,3.79,13.2,7.82,18.73,4.44,6.1,12.37,17.02,20.6,17.81,1.59.15,3.19-.14,4.76-.47,1.71-.36,3.42-.76,5-1.51,3.16-1.5,5.55-4.93,5.77-8.45.11-1.84-.54-3.95-2.23-4.69-1.81-.79-3.95.31-5.88-.14-4.14-.96-4.02-4.91-3.68-8.36.78-7.82-.06-17.33-3.35-24.54-2.03-4.46-5.71-8.44-10.48-9.59-5.32-1.29-11.13,1.31-14.47,5.66-2.75,3.58-3.97,8.13-4,12.67Z" style="fill:none; stroke:#301215; stroke-linecap:round; stroke-linejoin:round; stroke-width:.75px;"/><path d="m86.63,38.6c7.76-2.35,16.08-1.44,24.13-.51,2.61.3,5.28.63,7.86,1.21.25.49.52.98.77,1.48,4.93,9.85,10.85,20.37,7.83,31.78-.96,3.64-2.78,6.99-4.88,10.12-7.42,11.06-23.46,17.44-36.38,16.65-8.62-.53-19.2-4.12-25.11-10.76-4.69-5.26-6.76-14.39-7.69-21.64.89-2.6,2.12-5.1,3.65-7.37,6.69-10,18.47-17.51,29.82-20.94Z" style="fill:#fff; stroke-width:0px;"/><path d="m52.9,64.64c-.62-6.02-.55-12.1-.44-18.16.15-8.49.41-17.22,3.77-25.1,3.68-8.62,10.4-13.86,19.64-15.36,8.95-1.45,17.05-3.73,23.56,4.13,7.79,9.41,14.5,19.7,19.97,30.62,4.93,9.85,10.85,20.37,7.83,31.78-.96,3.64-2.78,6.99-4.88,10.12-7.42,11.06-23.46,17.44-36.38,16.65-8.62-.53-19.2-4.12-25.11-10.76-5.19-5.83-7.18-16.4-7.95-23.91Z" style="fill:none; stroke:#301215; stroke-linecap:round; stroke-linejoin:round; stroke-width:.75px;"/><path d="m67.62,39.08c-.33.6-.66,1.2-1.02,1.78-1.64,2.75-3.85,5.15-5.19,8.06-2.18,4.77-1.91,10.49-2.36,15.68-.21,2.36-.55,4.99-2.38,6.49-2.02,1.65-5.2,1.17-7.22-.48-2.02-1.65-3.11-4.18-3.86-6.69-3.51-11.73-2.67-26.84,2.59-37.94,1.87-3.95,4.86-7.99,9.19-8.53,3.24-.41,7.37,1.21,10.12,2.91,2.03,1.25,3.87,3.42,4.48,5.78.54,2.09-.51,3.99-1.22,5.95-.87,2.4-1.92,4.74-3.13,6.99Z" style="fill:#42454a; stroke-width:0px;"/><path d="m66.6,40.86c-1.64,2.75-3.85,5.15-5.19,8.06-2.18,4.77-1.91,10.49-2.36,15.68-.21,2.36-.55,4.99-2.38,6.49-2.02,1.65-5.2,1.17-7.22-.48-2.02-1.65-3.11-4.18-3.86-6.69-3.51-11.73-2.67-26.84,2.59-37.94,1.87-3.95,4.86-7.99,9.19-8.53" style="fill:none; stroke:#301215; stroke-linecap:round; stroke-linejoin:round; stroke-width:.75px;"/><path d="m100.14-18.14c.86,1.04,5.33,3.09,7.41,7.79,9.18,20.79-28.57,44.52-50.28,39.39-7.11-1.68-12.15-6.89-15.08-13.48-3.69-8.29-14.49-34.63,17.52-48.02,24.56-10.28,34.68,7.38,40.44,14.32Z" style="fill:#fff; stroke-width:0px;"/><path d="m100.14-18.14c.86,1.04,5.33,3.09,7.41,7.79,9.18,20.79-28.57,44.52-50.28,39.39-7.11-1.68-12.15-6.89-15.08-13.48-3.69-8.29-14.49-34.63,17.52-48.02,24.56-10.28,34.68,7.38,40.44,14.32Z" style="fill:none; stroke:#301215; stroke-linecap:round; stroke-linejoin:round; stroke-width:.75px;"/><path d="m61.41-10.97s-8.26.89-11.18,9.89c-2.92,9.01-.73,18.35,6.52,18.08,7.19-.27,12.26-5.94,11.31-10.22-1.88-8.47,2.99-17.45-6.65-17.75Z" style="fill:#42454a; stroke-width:0px;"/><path d="m80.72-19.06s5.26-4.77,12.83-.15c7.56,4.62,12.45,12.84,8.16,17.39-4.25,4.52-10.84,3.73-13.12,0-4.49-7.38-13.14-10.7-7.87-17.24Z" style="fill:#42454a; stroke-width:0px;"/><path d="m82.72-5.44s-1.59-.82-5.55.86c-4.01,1.7-4.55,3.37-4.48,3.55.08.18,3.86,3.64,6.92,2.36,3.07-1.28,3.53-4.46,3.1-6.77Z" style="fill:#301215; stroke-width:0px;"/><path d="m76.22,9.38c1.31,3.13,4.91,4.62,8.06,3.3,3.13-1.31,4.61-4.92,3.3-8.06-.13-.31-.28-.61-.46-.89-.25.19-.55.35-.91.51-2.39,1-4.23.64-5.51-.34-.21,1.6-1.24,3.16-3.64,4.16-.43.18-.81.28-1.16.3.07.34.18.68.32,1.01Z" style="fill:#d50c19; stroke:#301215; stroke-linecap:round; stroke-linejoin:round; stroke-width:.75px;"/><path d="m82.35,6.83c2.2-.06,4.18.75,5.41,2.04-.53,1.66-1.75,3.09-3.49,3.82-2.95,1.23-6.3,0-7.79-2.74,1.03-1.78,3.25-3.04,5.86-3.12Z" style="fill:#e48089; stroke:#301215; stroke-linecap:round; stroke-linejoin:round; stroke-width:.75px;"/><path d="m72.78,5.08c.12.28,1.27,2.72,3.74,1.68,3.54-1.48,2.89-4.1,2.45-5.15l1.31-.55c.44,1.06,1.85,3.35,5.39,1.87,2.47-1.03,1.54-3.56,1.43-3.84,0,0,3.03,3.52-.88,5.15-2.39,1-4.23.64-5.51-.33-.21,1.6-1.24,3.16-3.63,4.16-3.67,1.53-4.29-2.99-4.29-2.99Z" style="fill:#301215; stroke-width:0px;"/><path d="m60.29,11.04c.65,1.54-.96,3.69-3.59,4.79-2.63,1.1-5.29.74-5.93-.8-.65-1.54.96-3.69,3.59-4.79,2.63-1.1,5.29-.74,5.93.8Z" style="fill:#e48089; stroke-width:0px;"/><path d="m66.6-1.19c.1.11.19.25.19.4-.02.35-.5.43-.86.42-1.92-.09-3.85.31-5.58,1.15-1,.48-1.92,1.11-2.83,1.73-.31-.66,0-1.44.41-2.05.92-1.39,2.6-2.84,4.29-3.16,1.4-.27,3.47.47,4.38,1.52Z" style="fill:#301215; stroke-width:0px;"/><path d="m18.83,29.04l-4.43,4.39c-.21.21-.5.33-.8.33l-6.23.03c-.85,0-1.41.91-1.02,1.67l2.81,5.57c.14.27.16.58.07.87l-1.9,5.94c-.26.81.43,1.62,1.27,1.49l6.16-.95c.3-.05.6.03.85.2l5.06,3.64c.69.5,1.67.09,1.81-.75l1-6.15c.05-.3.21-.56.45-.74l5.03-3.69c.69-.51.61-1.56-.15-1.95l-5.54-2.85c-.27-.14-.47-.38-.57-.66l-1.96-5.92c-.27-.81-1.3-1.06-1.9-.46Z" style="fill:#f49292; stroke-width:0px;"/><path d="m-9.45-2.47l-.26,4.39c-.01.21-.11.41-.27.55l-3.26,2.95c-.45.4-.31,1.14.25,1.36l4.09,1.6c.2.08.36.23.44.42l1.8,4.01c.25.55.98.65,1.37.18l2.79-3.4c.13-.16.33-.27.54-.29l4.37-.47c.6-.06.92-.74.6-1.24L.64,3.89c-.11-.18-.15-.4-.11-.6L1.43-1.01c.12-.59-.42-1.1-1-.95L-3.82-.85c-.21.05-.42.02-.61-.08l-3.81-2.19c-.52-.3-1.18.05-1.21.66Z" style="fill:#f49292; stroke-width:0px;"/><path d="m152.55,44.77l-.26,4.39c-.01.21-.11.41-.27.55l-3.26,2.95c-.45.4-.31,1.14.25,1.36l4.09,1.6c.2.08.36.23.44.42l1.8,4.01c.25.55.98.65,1.37.18l2.79-3.4c.13-.16.33-.27.54-.29l4.37-.47c.6-.06.92-.74.6-1.24l-2.37-3.7c-.11-.18-.15-.4-.11-.6l.9-4.3c.12-.59-.42-1.1-1-.95l-4.25,1.11c-.21.05-.42.02-.61-.08l-3.81-2.19c-.52-.3-1.18.05-1.21.66Z" style="fill:#f49292; stroke-width:0px;"/><path d="m-4.19,149.76c-.52,0-1-.34-1.15-.85-2.05-7.4-1.83-15.81.65-24.31,2.39-8.22,6.49-15.01,11.85-19.63,6.3-5.45,14.39-7.77,21.64-6.21,8.79,1.89,16.49,9.6,20.1,20.13,3.12,9.1,3.15,18.92,2.9,29.02-.02.62-.54,1.12-1.18,1.12,0,0-.02,0-.03,0-.65-.02-1.17-.54-1.16-1.17.25-9.89.22-19.5-2.78-28.25-2.63-7.65-8.83-16.56-18.37-18.61-6.5-1.4-13.81.73-19.54,5.68-5.02,4.34-8.87,10.75-11.14,18.55-2.36,8.1-2.58,16.09-.64,23.1.17.61-.21,1.24-.84,1.4-.1.03-.21.04-.31.04Z" style="fill:#f49292; stroke-width:0px;"/><path d="m3.89,149.76c-.55,0-1.04-.37-1.16-.91-1.43-6.49-1.27-13.86.45-21.32,1.67-7.23,4.54-13.2,8.29-17.29,4.51-4.91,10.34-6.99,15.58-5.57,7.48,2.02,12.26,10.54,14.25,17.83,2.18,7.99,2.2,16.61,2.02,25.48-.01.63-.54,1.12-1.19,1.12h-.02c-.65-.01-1.18-.53-1.16-1.17.17-8.7.16-17.15-1.94-24.85-2.32-8.53-7.15-14.74-12.6-16.21-4.35-1.17-9.27.65-13.17,4.88-3.49,3.79-6.17,9.42-7.75,16.27-1.65,7.14-1.81,14.17-.45,20.34.14.62-.27,1.23-.91,1.36-.08.02-.17.03-.25.03Z" style="fill:#f49292; stroke-width:0px;"/><path d="m10.93,149.76c-.57,0-1.08-.4-1.17-.97-.89-5.41-.79-11.56.28-17.78.73-4.21,2.22-10.14,5.19-14.47,2.95-4.3,6.83-6.1,10.37-4.81,4.09,1.48,7.5,7.12,9.12,15.08,1.36,6.66,1.37,13.86,1.26,21.27,0,.63-.58,1.14-1.2,1.13-.65,0-1.18-.53-1.17-1.16.11-7.28.1-14.35-1.21-20.8-1.42-6.96-4.41-12.21-7.63-13.38-2.44-.89-5.27.58-7.56,3.93-2.17,3.16-3.84,7.85-4.82,13.58-1.03,5.98-1.13,11.87-.28,17.04.1.62-.34,1.21-.99,1.31-.06,0-.13.01-.19.01Z" style="fill:#f49292; stroke-width:0px;"/><path d="m101.46,138.18c-.69-1.23-3.21-1.5-4.88-.44-.84.54-1.51,1.42-1.61,2.41-.09,1,.49,2.07,1.45,2.36.48.15,1.01.09,1.5-.03,1.05-.26,2.02-.84,2.75-1.64,1.02-1.12,1.15-2.02.79-2.67Z" style="fill:#fff; stroke-width:0px;"/><path d="m106.93,142.06c-.41.83-.52,1.97.19,2.56.51.42,1.24.4,1.88.25,1.1-.25,2.13-.8,2.95-1.59.69-.66,1.25-1.64.94-2.55-1.05-3.08-5.12-.37-5.96,1.33Z" style="fill:#fff; stroke-width:0px;"/><path d="m92.59,149.19c-.83.48-1.54,1.24-1.77,2.17-.08.31-.09.65.04.95.25.56.94.79,1.55.76,1.22-.04,2.31-.78,3.19-1.62.49-.46.97-1.02,1.02-1.69.17-2.31-3.06-1.12-4.03-.57Z" style="fill:#fff; stroke-width:0px;"/><path d="m106.69,155.46c.31-2.71-4.73-.12-5.33,1.01-.14.26-.25.55-.23.84.04.47.44.85.88.99.45.14.93.08,1.38-.05,1.19-.32,2.25-1.07,2.97-2.08.15-.21.29-.45.32-.71Z" style="fill:#fff; stroke-width:0px;"/></pattern></defs><rect id="b" x="0" width="2134" height="1262" style="fill:#ffbaba; stroke-width:0px;"/><rect id="d" width="2134" height="1262" style="fill:url(#c); stroke-width:0px;"/></svg>